<svg width="255" height="255" viewBox="0 0 255 255" fill="none" xmlns="http://www.w3.org/2000/svg">
<g clip-path="url(#clip0_140_4114)">
<g filter="url(#filter0_d_140_4114)">
<path d="M112.689 72.7554C97.517 66.8057 80.3372 74.3095 74.3887 89.4789C68.4407 104.647 75.9392 121.831 91.1116 127.781C106.284 133.731 123.465 126.224 129.413 111.056C135.361 95.8867 127.86 78.7045 112.689 72.7554ZM94.0428 120.306C92.0603 119.529 90.2643 118.477 88.667 117.228C89.8893 114.605 89.8143 111.445 88.1762 108.806C86.5355 106.168 83.7381 104.706 80.8489 104.643C80.0586 100.883 80.2808 96.8816 81.6578 93.0268C84.5252 93.3562 87.4958 92.2937 89.482 89.9127C91.4674 87.5309 91.9787 84.4144 91.1373 81.654C94.5175 79.7013 98.4056 78.6911 102.374 78.7735C102.964 81.599 104.913 84.0813 107.801 85.2138C110.689 86.3461 113.803 85.8495 116.159 84.1791C119.224 86.9018 121.418 90.4222 122.543 94.2926C120.025 95.7038 118.245 98.3024 118.024 101.395C117.809 104.487 119.214 107.31 121.513 109.058C119.851 112.767 117.268 115.811 114.113 117.976C111.978 116.024 108.941 115.146 105.928 115.922C102.924 116.696 100.689 118.929 99.7593 121.661C97.8479 121.475 95.9233 121.043 94.0428 120.306Z" fill="#495464" stroke="#495464" stroke-width="2.13286"/>
<path d="M98.6683 108.51C103.221 110.295 108.358 108.052 110.144 103.5C111.929 98.9472 109.685 93.8095 105.133 92.0244C100.581 90.2392 95.443 92.4824 93.6578 97.0349C91.8726 101.587 94.1159 106.725 98.6683 108.51Z" fill="#495464" stroke="#495464" stroke-width="2.13286"/>
<path d="M22.7454 126.364L19.2279 135.334L201.622 206.858L205.14 197.888L243.979 98.8444L61.5845 27.3203L22.7454 126.364ZM40.0126 136.585C38.0636 135.82 36.9093 133.922 36.9743 131.944C36.9924 131.408 37.0792 130.87 37.2864 130.341C37.4937 129.812 37.7962 129.359 38.1469 128.954C39.4472 127.459 41.5806 126.85 43.5301 127.615C45.4796 128.379 46.6305 130.276 46.5682 132.256C46.5501 132.792 46.4636 133.33 46.2563 133.859C46.0502 134.384 45.7459 134.841 45.3957 135.246C44.0955 136.74 41.9616 137.349 40.0126 136.585ZM68.8543 43.9708L227.328 106.115L197.869 181.238L39.3955 119.094L68.8543 43.9708Z" fill="#495464" stroke="#495464" stroke-width="2.13286"/>
<path d="M140.281 199.275L73.3599 173.032L70.5453 180.21L137.467 206.452L140.281 199.275Z" fill="#495464" stroke="#495464" stroke-width="2.13286"/>
<path d="M130.351 187.322L88.7671 171.016L86.8343 175.945L128.418 192.251L130.351 187.322Z" fill="#495464" stroke="#495464" stroke-width="2.13286"/>
<path d="M193.692 122.594C194.663 120.117 193.445 117.322 190.966 116.349L150.033 100.298C147.557 99.327 144.76 100.548 143.789 103.024C142.818 105.499 144.039 108.298 146.515 109.269L187.448 125.32C189.927 126.292 192.721 125.068 193.692 122.594Z" fill="#495464" stroke="#495464" stroke-width="2.13286"/>
<path d="M194.718 141.97L153.786 125.919C151.31 124.948 148.513 126.169 147.542 128.645C146.571 131.12 147.792 133.918 150.268 134.889L191.2 150.941C193.68 151.913 196.474 150.689 197.445 148.214C198.415 145.738 197.197 142.942 194.718 141.97Z" fill="#495464" stroke="#495464" stroke-width="2.13286"/>
</g>
</g>
<defs>
<filter id="filter0_d_140_4114" x="13.8457" y="25.9385" width="235.515" height="190.302" filterUnits="userSpaceOnUse" color-interpolation-filters="sRGB">
<feFlood flood-opacity="0" result="BackgroundImageFix"/>
<feColorMatrix in="SourceAlpha" type="matrix" values="0 0 0 0 0 0 0 0 0 0 0 0 0 0 0 0 0 0 127 0" result="hardAlpha"/>
<feOffset dy="4"/>
<feGaussianBlur stdDeviation="2"/>
<feComposite in2="hardAlpha" operator="out"/>
<feColorMatrix type="matrix" values="0 0 0 0 0 0 0 0 0 0 0 0 0 0 0 0 0 0 0.25 0"/>
<feBlend mode="normal" in2="BackgroundImageFix" result="effect1_dropShadow_140_4114"/>
<feBlend mode="normal" in="SourceGraphic" in2="effect1_dropShadow_140_4114" result="shape"/>
</filter>
<clipPath id="clip0_140_4114">
<rect width="195.917" height="195.917" fill="white" transform="translate(71.9619 0.856445) rotate(21.4121)"/>
</clipPath>
</defs>
</svg>
