<svg width="247" height="248" viewBox="0 0 247 248" fill="none" xmlns="http://www.w3.org/2000/svg">
<g clip-path="url(#clip0_140_4126)" filter="url(#filter0_d_140_4126)">
<path d="M68.0917 166.393L80.3702 159.486L87.2812 171.763L96.8902 166.359L89.9794 154.079L102.259 147.169L96.8521 137.559L84.5726 144.47L77.6654 132.192L68.0562 137.599L74.9634 149.877L62.6878 156.785L68.0917 166.393Z" fill="#495464" stroke="#495464" stroke-width="2.44993"/>
<path d="M189.424 122.525L182.517 110.247L194.795 103.34L189.388 93.7303L177.11 100.638L170.199 88.3612L160.589 93.7684L167.5 106.044L155.221 112.955L160.628 122.564L172.907 115.654L179.814 127.932L189.424 122.525Z" fill="#495464" stroke="#495464" stroke-width="2.44993"/>
<path d="M167.639 158.395C169.984 156.731 171.305 153.981 171.137 151.112C170.97 148.243 169.333 145.664 166.813 144.29L95.6892 105.505L160.017 75.5733C162.224 74.5488 163.867 72.6123 164.522 70.2746L168.211 57.1134L182.444 61.1032L166.161 32.136L137.194 48.4185L152.174 52.6176L149.519 62.0878L73.7036 97.3632C70.8521 98.6878 68.9942 101.504 68.8918 104.644C68.7901 107.784 70.4693 110.714 73.2261 112.22L147.122 152.519L112.647 176.949L122.276 190.537L167.639 158.395Z" fill="#495464" stroke="#495464" stroke-width="2.44993"/>
<path d="M90.9574 218.713C100.6 221.416 110.611 215.79 113.314 206.146C116.017 196.503 110.391 186.493 100.747 183.789C91.1038 181.086 81.094 186.713 78.3907 196.356C75.6874 206 81.3145 216.01 90.9574 218.713ZM98.0513 193.407C102.374 194.619 104.906 199.123 103.694 203.446C102.482 207.769 97.9808 210.305 93.6543 209.092C89.3278 207.879 86.7994 203.376 88.0112 199.053C89.2231 194.73 93.7289 192.195 98.0513 193.407Z" fill="#495464" stroke="#495464" stroke-width="2.44993"/>
<path d="M202.253 142.499C192.61 139.796 182.6 145.423 179.897 155.066C177.193 164.71 182.82 174.719 192.464 177.423C202.106 180.126 212.117 174.5 214.82 164.856C217.526 155.213 211.9 145.204 202.253 142.499ZM195.16 167.805C190.837 166.593 188.305 162.089 189.517 157.766C190.728 153.443 195.233 150.911 199.556 152.123C203.879 153.335 206.41 157.839 205.198 162.162C203.99 166.486 199.485 169.018 195.16 167.805Z" fill="#495464" stroke="#495464" stroke-width="2.44993"/>
<path d="M40.8773 119.741C50.5203 122.444 60.5306 116.818 63.234 107.174C65.9373 97.5309 60.3108 87.5211 50.6672 84.8178C41.0237 82.1145 31.0139 87.741 28.3106 97.3845C25.6073 107.028 31.2338 117.038 40.8773 119.741ZM47.9702 94.4389C52.2932 95.6508 54.8251 100.155 53.6133 104.478C52.4014 108.801 47.897 111.333 43.5741 110.121C39.2511 108.909 36.7192 104.405 37.931 100.082C39.1428 95.759 43.6472 93.2271 47.9702 94.4389Z" fill="#495464" stroke="#495464" stroke-width="2.44993"/>
</g>
<defs>
<filter id="filter0_d_140_4126" x="-3.69458" y="0.772461" width="254.5" height="254.5" filterUnits="userSpaceOnUse" color-interpolation-filters="sRGB">
<feFlood flood-opacity="0" result="BackgroundImageFix"/>
<feColorMatrix in="SourceAlpha" type="matrix" values="0 0 0 0 0 0 0 0 0 0 0 0 0 0 0 0 0 0 127 0" result="hardAlpha"/>
<feOffset dy="4"/>
<feGaussianBlur stdDeviation="2"/>
<feComposite in2="hardAlpha" operator="out"/>
<feColorMatrix type="matrix" values="0 0 0 0 0 0 0 0 0 0 0 0 0 0 0 0 0 0 0.25 0"/>
<feBlend mode="normal" in2="BackgroundImageFix" result="effect1_dropShadow_140_4126"/>
<feBlend mode="normal" in="SourceGraphic" in2="effect1_dropShadow_140_4126" result="shape"/>
</filter>
<clipPath id="clip0_140_4126">
<rect width="199.951" height="199.951" fill="white" transform="translate(54.2761 0.772461) rotate(15.6595)"/>
</clipPath>
</defs>
</svg>
