<svg width="136" height="148" viewBox="0 0 136 148" fill="none" xmlns="http://www.w3.org/2000/svg">
<g filter="url(#filter0_d_140_4103)">
<path d="M15.764 51.9621C16.2534 53.7886 17.1512 55.3941 18.3203 56.728C21.8307 49.6653 26.765 43.3247 32.8689 38.1728C30.3103 36.8738 27.2848 36.4655 24.2905 37.2678C17.8673 38.9886 14.0505 45.567 15.764 51.9621Z" fill="#495464" stroke="#495464" stroke-width="2.40817"/>
<path d="M84.017 133.929C112.727 126.236 129.791 96.8269 122.131 68.2416C115.272 42.6431 90.9113 26.4028 65.2796 28.8082L64.7478 26.8234L64.2149 24.8346L62.68 19.1064L67.1882 17.8985C68.6803 17.4987 69.4656 15.5845 68.9411 13.627C68.416 11.6673 66.7797 10.4043 65.2873 10.8042L38.6773 17.9343C37.1852 18.3341 36.3993 20.2462 36.9244 22.2058C37.4495 24.1655 39.0858 25.4285 40.5782 25.0286L45.0863 23.8207L46.6211 29.5484L47.154 31.5372L47.6858 33.5221C43.509 35.4386 39.6644 37.8493 36.2057 40.6619C29.9494 45.7498 24.9574 52.1498 21.5411 59.328C16.2662 70.4134 14.7472 83.3353 18.1671 96.0984C25.8248 124.684 55.3073 141.622 84.017 133.929ZM31.965 59.9171C33.972 56.5071 36.4359 53.3651 39.2964 50.5843C44.5533 45.4707 51.1453 41.5809 58.728 39.5491C82.3317 33.2245 106.659 47.1998 112.956 70.7015C119.254 94.2033 105.173 118.47 81.5695 124.795C57.9658 131.119 33.6378 117.142 27.3405 93.64C24.1663 81.7936 26.1751 69.7561 31.965 59.9171Z" fill="#495464" stroke="#495464" stroke-width="2.40817"/>
<path d="M43.0294 109.043C44.5463 110.56 46.1877 111.943 47.9302 113.178C56.8875 119.531 68.5294 121.992 79.9953 118.92C100.381 113.458 112.497 92.5775 107.058 72.28C101.619 51.9824 80.6865 39.9573 60.3009 45.4196C48.835 48.4919 39.9836 56.4445 35.4028 66.4251C34.511 68.3655 33.7834 70.3838 33.2262 72.4568C31.5593 78.6772 31.4539 85.4003 33.2383 92.0599C35.0227 98.7194 38.4756 104.489 43.0294 109.043ZM37.3221 82.9847C37.0326 81.9043 37.6785 80.7912 38.7636 80.5004L95.4496 65.3115C96.5347 65.0207 97.6506 65.6618 97.9401 66.7422L102.049 82.0753C102.338 83.1557 101.692 84.2688 100.607 84.5595L43.9211 99.7485C42.836 100.039 41.7201 99.3982 41.4306 98.3178L37.3221 82.9847Z" fill="#495464" stroke="#495464" stroke-width="2.40817"/>
<path d="M55.0784 93.8265C57.2251 93.2513 58.5655 92.2375 59.1013 90.7847C59.6372 89.332 59.6032 87.476 58.9979 85.2169C58.3926 82.9578 57.4926 81.3297 56.301 80.3337C55.109 79.3377 53.4384 79.1265 51.2935 79.7012C49.1486 80.2759 47.8075 81.2941 47.2732 82.7526C46.7388 84.2112 46.7739 86.0714 47.3792 88.3302C47.9844 90.5889 48.8834 92.2134 50.0735 93.2037C51.264 94.1939 52.9335 94.4012 55.0784 93.8265ZM50.2549 83.634C50.3609 82.7558 50.9051 82.1841 51.8882 81.9207C52.8714 81.6572 53.6227 81.8818 54.1417 82.5925C54.6606 83.3032 55.1416 84.4836 55.5831 86.1315C56.0048 87.7054 56.1741 88.9503 56.0907 89.8664C56.0076 90.7824 55.4745 91.3723 54.4914 91.6358C53.5082 91.8992 52.7458 91.6564 52.2039 90.9079C51.662 90.1593 51.1822 88.9976 50.7605 87.4238C50.3189 85.7758 50.1511 84.5116 50.2549 83.634Z" fill="#495464"/>
<path d="M67.1301 87.2089L63.6091 88.1523L64.3655 90.975L67.8864 90.0316L67.1301 87.2089Z" fill="#495464"/>
<path d="M65.2348 80.1357L61.7139 81.0791L62.4702 83.9018L65.9912 82.9583L65.2348 80.1357Z" fill="#495464"/>
<path d="M76.2407 88.1556C78.3856 87.5808 79.7278 86.5666 80.2637 85.1138C80.7996 83.6611 80.7656 81.8051 80.1603 79.546C79.555 77.2869 78.655 75.6588 77.4633 74.6628C76.2713 73.6668 74.6008 73.4556 72.4559 74.0303C70.3092 74.6055 68.9698 75.6232 68.4355 77.0817C67.9012 78.5403 67.9363 80.4005 68.5415 82.6593C69.1467 84.918 70.0458 86.5425 71.2359 87.5328C72.4263 88.523 74.094 88.7308 76.2407 88.1556ZM71.4172 77.9631C71.5232 77.0849 72.0674 76.5132 73.0506 76.2498C74.0338 75.9863 74.7851 76.2109 75.304 76.9216C75.8234 77.6322 76.3017 78.8132 76.7433 80.4612C77.165 82.0351 77.3343 83.28 77.2531 84.1955C77.1718 85.111 76.6365 85.7015 75.6537 85.9649C74.6706 86.2283 73.9082 85.9855 73.3663 85.237C72.8244 84.4884 72.3446 83.3267 71.9229 81.7529C71.4795 80.1054 71.3112 78.8413 71.4172 77.9631Z" fill="#495464"/>
<path d="M89.4756 84.6097C91.6223 84.0345 92.9627 83.0207 93.4986 81.5679C94.0344 80.1152 94.0005 78.2592 93.3951 76.0001C92.7898 73.741 91.8898 72.1129 90.6982 71.1169C89.5062 70.1209 87.8356 69.9097 85.6907 70.4844C83.5458 71.0591 82.2047 72.0773 81.6704 73.5359C81.136 74.9944 81.1712 76.8546 81.7764 79.1134C82.3816 81.3721 83.2806 82.9966 84.4707 83.9869C85.6612 84.9771 87.3307 85.1844 89.4756 84.6097ZM84.6521 74.4172C84.7581 73.539 85.3023 72.9673 86.2854 72.7039C87.2686 72.4404 88.0199 72.665 88.5389 73.3757C89.0578 74.0864 89.5366 75.2674 89.9782 76.9153C90.3999 78.4892 90.5692 79.7341 90.4879 80.6496C90.4048 81.5656 89.8714 82.1556 88.8886 82.419C87.9054 82.6824 87.143 82.4396 86.6011 81.6911C86.0593 80.9425 85.5794 79.7808 85.1577 78.207C84.7162 76.559 84.5479 75.2949 84.6521 74.4172Z" fill="#495464"/>
</g>
<defs>
<filter id="filter0_d_140_4103" x="10.1497" y="9.52539" width="119.018" height="135.463" filterUnits="userSpaceOnUse" color-interpolation-filters="sRGB">
<feFlood flood-opacity="0" result="BackgroundImageFix"/>
<feColorMatrix in="SourceAlpha" type="matrix" values="0 0 0 0 0 0 0 0 0 0 0 0 0 0 0 0 0 0 127 0" result="hardAlpha"/>
<feOffset dy="4"/>
<feGaussianBlur stdDeviation="2"/>
<feComposite in2="hardAlpha" operator="out"/>
<feColorMatrix type="matrix" values="0 0 0 0 0 0 0 0 0 0 0 0 0 0 0 0 0 0 0.25 0"/>
<feBlend mode="normal" in2="BackgroundImageFix" result="effect1_dropShadow_140_4103"/>
<feBlend mode="normal" in="SourceGraphic" in2="effect1_dropShadow_140_4103" result="shape"/>
</filter>
</defs>
</svg>
