<svg width="655" height="708" viewBox="0 0 655 708" fill="none" xmlns="http://www.w3.org/2000/svg">
<path d="M344.091 184.205C337.028 184.88 342.911 153.171 349.991 145.102C357.071 137.033 387.456 127.723 395.421 122.447C403.386 117.171 412.235 110.033 417.84 109.102C417.84 109.102 432 94.8268 435.54 89.8614C439.08 84.896 442.325 80.8615 445.57 81.4822C448.815 82.1029 455.895 81.1719 459.14 81.1719C462.385 81.1719 462.975 86.758 463.86 88.9304C464.745 91.1028 464.155 92.9648 460.615 95.7579C460.615 95.7579 460.615 98.8613 459.435 100.723C458.255 102.585 455.01 108.171 453.24 108.171C451.47 108.171 450.29 104.758 450.29 104.758L447.635 104.447C447.635 104.447 438.49 119.654 428.165 121.206C428.165 121.206 409.286 137.343 400.731 144.171C392.176 150.998 377.426 171.481 363.266 175.826C363.266 175.826 347.336 183.894 344.091 184.205Z" fill="#D48C70"/>
<path d="M305.446 140.447C296.006 144.585 285.779 152.861 280.273 164.861C274.766 176.861 273.193 190.102 270.44 196.308C267.687 202.515 268.08 214.929 268.08 214.929C268.08 214.929 259.82 234.377 260.213 236.86C260.606 239.342 278.306 262.928 282.633 264.997C282.633 264.997 283.42 272.859 283.42 278.239C283.42 283.618 287.747 288.997 288.533 293.549C288.533 293.549 283.026 297.686 281.846 299.756C280.666 301.825 280.666 305.135 280.666 305.135C280.666 305.135 276.733 309.272 275.159 312.583C273.586 315.893 266.113 326.651 263.753 329.134C261.393 331.617 259.819 337.41 259.426 342.375C259.033 347.341 255.099 353.548 255.099 353.548C255.099 353.548 264.539 347.754 270.832 344.858C277.125 341.962 290.499 338.651 294.432 341.134C298.365 343.617 309.379 352.306 314.099 354.789C318.818 357.272 336.518 362.237 344.385 368.444C352.252 374.651 359.332 376.72 368.378 372.996C377.425 369.272 373.885 369.272 371.918 365.961C369.951 362.651 364.051 351.478 364.051 351.478C364.051 351.478 370.738 332.858 369.951 318.375C369.951 318.375 374.671 317.962 372.704 309.272C370.738 300.583 375.458 286.1 372.704 272.445C369.951 258.79 367.985 248.031 369.165 236.859C370.345 225.687 371.131 216.997 364.445 208.308C357.758 199.618 355.005 195.894 352.645 192.584C350.285 189.273 347.138 180.998 347.138 180.998C347.138 180.998 357.758 171.895 349.105 157.826C340.452 143.758 305.446 140.447 305.446 140.447Z" fill="#FFF8DD"/>
<path d="M356.579 370.513L356.186 380.031C356.186 380.031 361.299 382.927 356.973 387.892C356.973 387.892 360.119 389.547 359.726 393.686C359.726 393.686 366.413 395.755 368.773 398.237C371.133 400.72 371.133 405.272 375.852 407.755C380.572 410.237 382.539 412.307 385.292 413.962C388.046 415.616 391.979 420.582 391.979 420.582C391.979 420.582 365.233 431.341 352.253 439.202C339.273 447.064 334.946 461.96 334.946 461.96L342.813 468.167C342.813 468.167 334.553 473.96 329.44 474.788C324.326 475.615 321.966 471.477 316.46 465.684C310.953 459.891 295.22 443.754 295.22 443.754C295.22 443.754 289.32 445.409 285.78 448.305C282.24 451.202 281.847 453.271 280.667 448.719C279.487 444.167 268.08 422.237 258.64 416.03C249.2 409.823 235.433 406.513 229.14 413.134C229.14 413.134 229.927 407.755 232.287 405.272C234.647 402.789 233.86 399.479 239.76 399.893C245.66 400.307 241.333 392.031 240.94 389.134C240.547 386.238 245.66 378.79 245.66 378.79C245.66 378.79 248.02 365.963 253.133 359.756C258.246 353.549 255.886 351.894 260.606 346.101C265.326 340.308 288.926 328.308 320.393 346.929C351.859 365.548 356.579 370.513 356.579 370.513Z" fill="#5454B6"/>
<path d="M301.02 236.626C301.02 236.626 301.371 228.872 295.054 226.287C288.736 223.703 276.921 225.28 271.305 227.496C265.689 229.711 262.179 235.619 262.179 235.619C262.179 235.619 253.286 249.55 249.776 254.35C246.266 259.15 242.054 261.365 239.948 268.381C237.843 275.397 235.386 292.751 231.876 296.443C231.876 296.443 225.909 296.443 222.048 295.335C218.188 294.227 213.625 291.274 212.221 297.92C212.221 297.92 208.009 298.289 207.307 301.612C206.605 304.936 205.903 310.105 205.201 315.274C204.499 320.444 205.903 321.182 209.062 324.136C209.062 324.136 208.36 328.936 212.221 330.413C216.082 331.89 218.188 333.736 222.399 331.152C226.611 328.567 226.26 325.244 226.26 325.244C226.26 325.244 231.876 326.352 235.737 322.29C239.598 318.228 241.353 313.797 247.32 309.366C253.287 304.936 262.413 296.443 266.624 287.212C270.836 277.981 276.101 268.38 281.015 262.842C285.928 257.303 297.861 243.272 301.02 236.626Z" fill="#E99F81"/>
<path d="M121.76 380.651C121.76 380.651 128.84 373.203 127.66 365.962C126.48 358.721 124.71 358.1 124.71 355.824C124.71 353.548 119.203 350.031 119.203 350.031C119.203 350.031 119.006 347.755 117.04 347.962C115.073 348.168 114.09 349.41 114.09 349.41C114.09 349.41 111.533 348.376 109.37 348.169C107.207 347.962 107.207 344.652 105.24 345.272C103.273 345.893 101.503 346.927 101.503 346.927C101.503 346.927 88.1298 342.79 85.3761 339.893C82.623 336.997 72.7894 330.376 65.1194 330.79C65.1194 330.79 63.9394 329.135 59.8094 329.962C55.6794 330.789 54.1063 330.376 47.4195 331.824C40.7327 333.273 33.8495 335.962 31.8827 340.514C29.9159 345.065 29.1296 349.824 40.1427 353.755C51.1558 357.686 54.1058 359.962 57.2526 362.858C60.3994 365.754 66.6925 370.513 67.8725 372.582C69.0525 374.651 76.3293 381.685 78.0993 383.34C79.8693 384.995 81.6393 389.754 85.3761 385.203C89.1135 380.651 121.76 380.651 121.76 380.651Z" fill="#DF4551"/>
<path d="M389.226 419.443C389.226 419.443 423.74 451.408 429.05 455.753C434.36 460.098 445.57 471.27 447.93 477.787C450.29 484.304 451.765 489.27 454.715 493.615C457.665 497.959 455.895 504.477 455.895 504.477C455.895 504.477 421.085 519.994 419.61 517.511C418.135 515.028 412.531 505.718 406.041 502.304C399.551 498.89 354.711 477.167 332.586 461.029C332.586 461.029 331.406 431.236 389.226 419.443Z" fill="#E99F81"/>
<path d="M423.15 528.994C423.15 528.994 420.79 526.511 420.79 524.028C420.79 521.546 417.545 521.856 420.79 515.649C424.035 509.442 441.44 502.304 447.93 501.373C454.42 500.442 458.55 499.822 458.845 505.718C458.845 505.718 462.09 508.511 462.09 515.028C462.09 515.028 470.94 522.166 475.365 531.476C479.79 540.787 491 565.924 494.245 569.959C497.49 573.993 496.605 579.579 494.245 581.752C494.245 581.752 507.815 602.544 511.06 605.027C514.305 607.51 521.09 611.855 527.875 612.475C534.66 613.096 531.415 625.82 520.205 631.716C508.995 637.613 502.505 640.095 497.49 634.509C492.475 628.923 474.48 609.372 466.515 602.234C458.55 595.096 438.49 572.752 434.36 559.407C430.23 546.062 423.15 528.994 423.15 528.994Z" fill="#232232"/>
<path d="M524.63 622.716C524.63 622.716 515.485 629.233 511.65 631.405C511.65 631.405 506.635 631.095 502.505 632.957C498.375 634.819 495.72 636.371 497.785 639.474C499.85 642.578 501.325 641.647 502.8 645.991C504.275 650.336 508.11 659.957 513.42 661.508C518.73 663.06 519.91 661.508 522.565 660.577C525.22 659.646 525.515 660.888 527.875 657.474C530.235 654.06 524.63 622.716 524.63 622.716Z" fill="#DF4551"/>
<path d="M316.459 384.375C316.459 384.375 315.672 387.685 314.689 388.306C313.706 388.927 313.116 387.892 313.116 387.892C313.116 387.892 310.756 394.099 308.986 398.651C307.216 403.203 305.053 406.927 303.283 411.065C301.513 415.202 300.136 418.306 299.153 417.892C298.17 417.478 296.203 416.858 297.383 414.375C298.563 411.892 305.25 400.306 306.626 395.755C308.003 391.203 311.543 382.927 312.526 381.686C313.509 380.445 316.459 382.719 316.459 384.375Z" fill="#471E25"/>
<path d="M310.362 378.789C311.02 380.517 307.805 384.995 306.232 388.512C304.659 392.029 304.462 395.754 301.709 394.926C298.956 394.099 293.449 389.547 293.449 389.547C293.449 389.547 288.532 398.444 287.156 401.133C285.779 403.823 285.976 405.892 283.223 405.271C280.47 404.65 279.88 404.443 281.256 401.754C282.633 399.064 286.959 389.34 289.319 386.03C291.679 382.719 296.399 372.788 297.776 370.72C299.153 368.651 302.103 371.133 300.923 373.203C299.743 375.272 296.203 382.513 295.416 384.168C294.629 385.823 296.989 387.892 299.546 388.72C302.103 389.547 301.709 389.754 303.676 384.788C305.643 379.823 306.823 377.34 307.413 376.72C308.003 376.099 309.969 377.754 310.362 378.789Z" fill="#471E25"/>
<path d="M351.662 211.825C353.311 214.947 351.465 216.998 347.925 214.929C344.385 212.859 340.648 207.273 338.485 204.377C336.322 201.481 334.355 198.377 334.355 198.377L340.255 194.86C340.255 194.86 345.958 202.929 347.335 204.998C348.712 207.067 350.679 209.963 351.662 211.825Z" fill="#FFFEFB"/>
<path d="M357.169 212.446C356.366 215.403 348.319 203.964 346.549 201.067C344.779 198.17 343.009 195.481 343.009 195.481L345.369 194.446C345.369 194.446 351.466 202.722 353.432 204.791C355.399 206.86 357.562 210.998 357.169 212.446Z" fill="#4747B5"/>
<path d="M174.466 71.2412C174.466 71.2412 177.416 72.7929 185.381 70.6206C193.346 68.4482 196.886 63.1724 196.886 63.1724C190.691 61.6207 188.036 56.6553 188.036 56.6553C188.036 56.6553 194.231 59.138 199.836 59.4483C205.441 59.7587 213.406 61.6207 213.406 61.6207C213.701 58.8276 216.946 57.8966 216.946 57.8966C214.881 56.6553 214.881 55.1036 214.881 55.1036C214.881 55.1036 221.076 51.0691 216.061 48.8968C211.046 46.7244 213.701 43.0003 213.701 43.0003C208.391 42.69 205.146 36.4832 205.146 36.4832C219.011 39.8969 231.106 34.0004 231.106 34.0004C227.271 33.3798 225.501 30.897 225.501 30.897C225.501 30.897 229.926 31.2074 237.891 29.6557C245.856 28.104 249.101 38.6555 255.001 38.9659C260.901 39.2762 268.276 46.414 268.276 46.414C273.291 41.4486 281.846 44.2417 287.451 48.2761C293.056 52.3105 293.941 49.8278 304.56 50.1381C314.017 50.4142 311.083 57.0883 314.907 64.2438C315.57 63.7925 316.249 63.3335 316.95 62.8621C327.57 55.7242 344.238 59.2931 355.743 64.8793C367.248 70.4654 369.018 81.1721 369.018 81.1721C378.753 86.7582 373.295 95.7581 373.295 95.7581C373.295 95.7581 310.165 134.551 304.56 132.378C298.956 130.206 293.941 113.447 293.941 113.447C293.627 113.132 293.363 112.766 293.102 112.397C289.36 115.641 284.898 117.595 276.536 118.723C265.031 120.275 258.836 109.413 258.836 109.413C241.726 118.103 238.776 111.585 238.776 111.585C229.926 113.447 223.141 110.654 223.141 110.654C230.221 109.723 242.906 105.999 242.906 105.999C239.071 104.758 235.531 100.413 235.531 100.413C235.531 100.413 229.631 100.103 225.501 101.344C221.371 102.586 211.046 109.413 211.046 109.413C216.651 99.1718 227.271 96.9995 227.271 96.9995C227.271 96.9995 211.341 87.9996 205.736 89.8616C200.131 91.7237 200.426 87.3789 193.641 87.3789C186.856 87.3789 182.136 81.4825 182.136 81.4825C186.266 82.4135 190.101 80.5514 190.101 80.5514C188.331 79.6204 187.151 77.448 187.151 77.448C194.821 76.8274 196.001 72.7929 196.001 72.7929C196.001 72.7929 190.691 72.7929 184.791 74.655C178.891 76.517 174.466 71.2412 174.466 71.2412Z" fill="#471E25"/>
<path d="M369.461 81.4821C369.461 81.4821 363.856 77.758 344.976 84.8958C326.096 92.0337 307.971 104.584 302.496 110.344C296.744 116.395 293.646 117.792 293.941 114.068C312.821 95.4474 332.586 84.5855 347.336 79.3097C362.086 74.0339 373.886 78.3787 369.461 81.4821Z" fill="#DF4551"/>
<path d="M373.886 92.0336C375.656 98.5507 372.706 103.826 373.296 108.482C373.886 113.137 373.886 113.447 370.936 115.309C367.986 117.171 366.511 120.895 366.511 120.895C366.511 120.895 367.396 126.171 368.281 129.895C369.166 133.619 368.871 137.343 365.921 137.343C362.971 137.343 360.316 138.585 360.316 138.585C360.316 138.585 358.841 141.378 359.431 143.55C360.021 145.722 355.891 145.412 355.891 145.412C355.891 145.412 357.661 148.205 356.481 149.757C355.301 151.309 353.531 151.309 352.941 153.171C352.351 155.033 352.941 156.274 350.876 159.377C348.811 162.481 344.091 164.032 339.371 160.619C335.933 158.132 334.651 162.481 334.651 162.481C334.651 162.481 337.601 166.826 338.191 171.481C338.781 176.136 342.026 179.86 337.011 177.687C331.996 175.515 319.311 165.274 314.001 161.55C308.691 157.826 302.791 148.515 302.791 145.412C302.791 142.309 304.561 136.102 304.561 132.378C304.561 132.378 306.626 132.998 308.101 129.274C309.576 125.55 310.461 119.033 310.461 119.033C310.461 119.033 306.036 113.137 308.986 104.757C311.936 96.3783 318.426 99.4817 321.966 103.516C325.506 107.551 327.571 109.723 327.571 109.723C327.571 109.723 332.586 105.378 334.356 98.2404C336.126 91.1025 352.351 85.2061 360.021 86.7578C367.691 88.3095 373.886 92.0336 373.886 92.0336Z" fill="#E99F81"/>
<path d="M53.7142 358.898C55.4214 360.053 56.8235 361.752 57.921 363.468C59.1711 364.574 60.7409 365.872 62.2647 367.156C62.0667 365.985 61.4723 364.366 60.207 362.153C55.9239 354.713 50.1782 350.993 49.7362 349.903C49.2943 348.813 55.9245 343.842 59.0186 341.212C61.5794 339.032 67.9808 333.323 70.1753 331.351C68.453 330.934 66.7306 330.71 65.1149 330.79C65.1149 330.79 64.7946 330.325 63.8648 330.021C61.5328 331.367 58.8201 334.029 56.5184 336.562C53.2717 340.122 44.8587 346.183 44.4167 349.278C43.9748 352.388 48.6998 355.483 53.7142 358.898Z" fill="#471E25"/>
<path d="M205.441 467.546C205.441 467.546 204.261 456.995 202.786 455.443C201.311 453.891 197.476 439.926 188.921 427.823C180.366 415.72 165.911 402.685 150.276 397.099C134.642 391.513 125.202 380.651 123.727 378.789C122.252 376.927 119.892 376.927 119.007 374.755C118.122 372.582 117.827 369.479 113.697 366.996C109.567 364.514 103.667 364.203 100.127 366.376C96.5868 368.548 88.9168 367.617 88.9168 367.617C88.9168 367.617 88.9168 373.513 86.5569 376.617C84.1969 379.72 83.9019 385.617 83.9019 385.617C83.9019 385.617 87.1468 388.099 88.9168 392.134C90.6868 396.168 95.1118 397.72 95.1118 397.72C95.1118 397.72 95.9968 402.375 100.127 402.375C100.127 402.375 111.042 409.203 115.467 414.168C119.892 419.133 126.972 424.72 126.972 424.72C126.972 424.72 124.612 428.133 126.677 431.857C128.742 435.581 145.852 458.236 151.456 464.133C157.061 470.029 163.551 480.27 165.911 482.443C168.271 484.615 170.041 483.994 170.041 483.994C170.041 483.994 171.221 487.719 172.991 488.339C174.761 488.96 178.006 492.374 178.596 494.856C179.186 497.339 181.251 501.684 184.791 497.96C188.331 494.236 201.016 481.822 205.441 467.546Z" fill="#232232"/>
<path d="M283.911 448.616C280.076 452.34 261.196 476.857 253.231 483.374C245.266 489.891 228.451 505.718 222.552 510.684C216.652 515.649 206.327 514.098 201.902 514.098C197.477 514.098 191.577 510.994 189.512 507.891C187.447 504.787 183.317 497.96 183.317 497.96C183.317 497.96 190.987 483.684 198.362 476.857C205.737 470.029 211.833 435.064 229.14 413.134C246.446 391.203 278.306 416.34 283.911 448.616Z" fill="#E99F81"/>
<path d="M563.755 678.5C540.261 678.5 521.215 658.464 521.215 633.748C521.215 609.032 540.261 588.996 563.755 588.996C587.249 588.996 606.294 609.032 606.294 633.748C606.294 658.464 587.249 678.5 563.755 678.5Z" fill="#FFFEFB"/>
<path d="M521.819 626.021L521.85 626.153V626.186L522.431 629.374C523.499 630.183 527.298 632.264 527.298 632.264C528.962 648.714 537.016 661.827 537.016 661.827C536.639 663.132 535.901 665.493 535.383 667.079C535.383 667.079 535.383 667.079 535.383 667.096C537.094 668.698 538.915 670.168 540.862 671.456C541.679 669.078 543.091 665.824 543.091 665.824C557.377 669.343 571.507 665.18 571.507 665.18C575.636 670.35 581.413 672.331 584.176 673.008H584.192C586.091 671.918 587.897 670.663 589.608 669.276C583.925 668.45 575.306 660.225 575.306 660.225L577.74 649.837L576.515 648.087L574.238 648.566L569.984 659.268C552.055 662.786 541.113 658.954 541.113 658.954C534.284 649.837 532.149 631.29 532.149 631.29C539.292 621.38 554.646 612.924 554.646 612.924L564.065 618.193L566.483 617.235L566.185 614.51L557.377 608.762C556.608 600.455 562.386 590.38 562.386 590.38C564.128 589.57 568.131 589.538 570.769 589.62C568.493 589.207 566.138 588.992 563.751 588.992C560.015 588.992 556.404 589.504 552.95 590.445L554.944 591.172C552.353 596.292 549.936 607.969 549.936 607.969C537.172 614.674 527.439 626.665 527.439 626.665L523.64 624.419L521.866 625.971V625.988L521.819 626.021Z" fill="#471E25"/>
<path d="M593.533 623.626L595.652 625.376L601.288 623.46C604.365 629.075 605.621 634.443 606.123 637.73C606.233 636.425 606.296 635.088 606.296 633.75C606.296 630.348 605.935 627.028 605.244 623.84C605.244 623.824 605.228 623.824 605.228 623.807C604.13 620.768 602.952 618.985 602.952 618.985C602.889 617.383 602.559 615.797 602.041 614.228C599.937 609.67 597.127 605.541 593.736 602.007C597.928 609.456 599.451 618.837 599.451 618.837L594.442 621.231L593.533 623.626Z" fill="#471E25"/>
</svg>
