<?xml version="1.0" encoding="utf-8"?>
<!-- Svg Vector Icons : http://www.onlinewebfonts.com/icon -->
<!DOCTYPE svg PUBLIC "-//W3C//DTD SVG 1.1//EN" "http://www.w3.org/Graphics/SVG/1.1/DTD/svg11.dtd">
<svg version="1.1" xmlns="http://www.w3.org/2000/svg" xmlns:xlink="http://www.w3.org/1999/xlink" x="0px" y="0px" viewBox="0 0 256 256" enable-background="new 0 0 256 256" xml:space="preserve">
<metadata> Svg Vector Icons : http://www.onlinewebfonts.com/icon </metadata>
<g> <path fill="#000000" d="M187.9,70.7c-2.8,0-5.5,0.2-8,0.5c-10.1-24.3-34.1-41.4-62.1-41.4C83.3,29.8,55,55.6,51.1,89 C27.8,92.9,10,113.2,10,137.6c0,26.4,20.8,48,46.9,49.2c0.4,0.1,0.8,0.1,1.3,0.1h31.6c4.8,0,8.7-3.9,8.7-8.8c0-4.8-3.9-8.7-8.7-8.7 H59.3c-17.5,0-31.6-14.2-31.6-31.7c0-17.5,14.2-31.9,31.7-31.9l0,0l0,0c4.8,0,8.7-3.9,8.7-8.7c0-0.1,0-0.1,0-0.1 c0-27.4,22.2-49.7,49.7-49.7c22.7,0,41.8,15.2,47.8,36c0.2,1,0.6,1.9,1.1,2.8c0,0,0,0,0,0c0.1,0.2,0.3,0.4,0.4,0.6 c0.9,1.2,2,2.1,3.3,2.7l0.1,0c0.2,0.1,0.4,0.2,0.6,0.2l0.1,0c0.2,0.1,0.4,0.1,0.6,0.2c0,0,0.1,0,0.1,0c0.2,0.1,0.4,0.1,0.6,0.1 c0,0,0.1,0,0.1,0c0.5,0.1,1,0.1,1.5,0.1c0.3,0,0.6,0,0.9-0.1c0,0,0,0,0,0c0.3,0,0.5-0.1,0.8-0.1c0.1,0,0.1,0,0.2,0 c0.1,0,0.3-0.1,0.4-0.1l0,0c3.7-1.1,7.6-1.7,11.5-1.7c22.4,0,40.6,18.2,40.6,40.6c0,22.4-18.1,40.6-40.5,40.6v0h-21.7 c-4.8,0-8.7,3.9-8.7,8.8s3.9,8.7,8.7,8.7H188c0.1,0,0.1,0,0.2,0c32-0.2,57.8-26.1,57.8-58.1C246,96.7,220,70.7,187.9,70.7 L187.9,70.7z"/> <path fill="#000000" d="M167.9,148.7c0-2.4-1-4.6-2.6-6.2l-30.7-30.7c-0.2-0.2-0.4-0.4-0.6-0.6c-0.1-0.1-0.2-0.1-0.3-0.2 c-0.1-0.1-0.3-0.2-0.4-0.3c-0.1-0.1-0.2-0.1-0.4-0.2c-0.1-0.1-0.2-0.2-0.4-0.2c-0.1-0.1-0.3-0.1-0.4-0.2c-0.1-0.1-0.3-0.1-0.4-0.2 c-0.1-0.1-0.3-0.1-0.4-0.1c-0.1-0.1-0.3-0.1-0.4-0.1c-0.1,0-0.3-0.1-0.4-0.1c-0.1,0-0.3-0.1-0.4-0.1c-0.1,0-0.3,0-0.4-0.1 c-0.1,0-0.3,0-0.4-0.1c-0.3,0-0.5,0-0.8,0c0,0,0,0,0,0h0h0c0,0,0,0-0.1,0c-0.3,0-0.5,0-0.8,0c-0.1,0-0.3,0-0.4,0.1 c-0.1,0-0.3,0-0.4,0.1c-0.2,0-0.3,0.1-0.5,0.1c-0.1,0-0.2,0.1-0.4,0.1c-0.2,0-0.3,0.1-0.5,0.2c-0.1,0-0.2,0.1-0.4,0.1 c-0.1,0.1-0.3,0.1-0.4,0.2c-0.1,0.1-0.2,0.1-0.3,0.2c-0.1,0.1-0.3,0.2-0.4,0.2c-0.1,0.1-0.2,0.1-0.3,0.2c-0.2,0.1-0.3,0.2-0.5,0.4 c-0.1,0.1-0.1,0.1-0.2,0.2c-0.2,0.2-0.4,0.4-0.7,0.6l-30.7,30.7c-1.6,1.6-2.6,3.9-2.6,6.2c0,4.8,3.9,8.7,8.7,8.7 c2.3,0,4.6-0.9,6.2-2.6l15.8-15.8v78.3c0,2.3,0.9,4.5,2.6,6.2c3.4,3.4,9,3.4,12.4,0c1.6-1.6,2.6-3.9,2.6-6.2v-78.3l15.8,15.8 c1.6,1.6,3.9,2.6,6.2,2.6C164,157.5,167.9,153.6,167.9,148.7L167.9,148.7z"/></g>
</svg>