<?xml version="1.0" encoding="utf-8"?>
<!-- Generator: Adobe Illustrator 23.1.0, SVG Export Plug-In . SVG Version: 6.00 Build 0)  -->
<svg version="1.1" id="Capa_1" xmlns="http://www.w3.org/2000/svg" xmlns:xlink="http://www.w3.org/1999/xlink" x="0px" y="0px"
	 viewBox="0 0 1200 1200" enable-background="new 0 0 1200 1200" xml:space="preserve">
<g>
	<path fill="#F2AC84" d="M678.252,822.076c0,0,7.799,27.555,12.998,38.474c5.199,10.918,8.319,26.516,8.319,26.516
		s3.639,29.115,25.996,38.474c22.356,9.358,42.113-1.56,46.792-10.918c4.679-9.358,9.878-15.597,13.518-27.035
		c3.639-11.438-2.08-28.075-4.159-36.914s2.6-51.991-2.6-71.228C773.916,760.206,687.091,750.848,678.252,822.076z"/>
	<path fill="#222233" d="M699.569,887.065c8.304,12.455,34.314,36.914,66.549,31.195c5.199-2.6,8.319-6.239,8.319-6.239
		s2.08,7.799-4.159,12.478s-13.518,29.115-22.876,41.073c0,0,1.04,9.358-5.719,15.597c-6.759,6.239-76.427,73.828-77.467,81.626
		c-1.04,7.799-21.316,53.551-43.153,44.713c-21.836-8.839-17.677-25.996-17.157-37.434c0.52-11.438,7.279-25.476,14.558-40.033
		c7.279-14.557,24.436-41.073,25.476-51.471c1.04-10.398,5.719-36.914,17.677-51.471c11.958-14.558,27.555-35.354,30.155-38.474
		C694.37,885.505,695.409,880.826,699.569,887.065z"/>
	<path fill="#B5453D" d="M597.146,1073.194c0,4.679-4.159,17.677-5.199,29.635c-1.04,11.958,7.279,23.396,12.998,25.476
		c0,0,1.56,5.199,5.719,5.719s6.239-2.08,6.239-2.08l11.438,2.08c0,0-0.52,4.159,4.159,4.159c4.679,0,6.759-2.6,6.759-2.6
		s11.438,0,15.077,0.52c3.639,0.52,36.914,6.239,49.392,2.599s-17.677-47.832-27.555-51.471s-17.157-4.679-20.797-6.759
		c-3.639-2.08-13.518,2.6-16.117,8.319c-2.6,5.719-16.117,1.04-23.916-4.679c-7.799-5.719-7.743-10.077-8.839-12.998
		C603.385,1062.795,597.146,1068.514,597.146,1073.194z"/>
	<g>
		<circle fill="#FFF8DD" cx="719.015" cy="1073.213" r="76.787"/>
		<g>
			<path fill="#5454B5" d="M794.712,1059.954l-0.057,0.227v0.057l-1.049,5.469c-1.927,1.389-8.785,4.959-8.785,4.959
				c-3.004,28.225-17.541,50.725-17.541,50.725c0.68,2.239,2.012,6.291,2.947,9.012c0,0,0,0,0,0.028
				c-3.089,2.749-6.376,5.271-9.89,7.481c-1.474-4.081-4.024-9.663-4.024-9.663c-25.788,6.036-51.292-1.105-51.292-1.105
				c-7.453,8.87-17.881,12.27-22.869,13.432h-0.028c-3.429-1.87-6.688-4.024-9.777-6.404c10.258-1.417,25.816-15.529,25.816-15.529
				l-4.393-17.825l2.21-3.004l4.109,0.822l7.68,18.363c32.362,6.036,52.114-0.538,52.114-0.538
				c12.327-15.643,16.181-47.466,16.181-47.466c-12.894-17.003-40.609-31.512-40.609-31.512l-17.003,9.04l-4.364-1.644l0.538-4.676
				l15.898-9.862c1.389-14.254-9.04-31.54-9.04-31.54c-3.146-1.389-10.372-1.445-15.133-1.303c4.109-0.708,8.36-1.077,12.667-1.077
				c6.745,0,13.262,0.878,19.497,2.494l-3.599,1.247c4.676,8.785,9.04,28.82,9.04,28.82c23.039,11.505,40.609,32.079,40.609,32.079
				l6.858-3.854l3.202,2.664v0.028L794.712,1059.954z"/>
			<path fill="#5454B5" d="M665.263,1055.845l-3.826,3.004l-10.173-3.287c-5.554,9.635-7.821,18.845-8.728,24.484
				c-0.198-2.239-0.312-4.534-0.312-6.83c0-5.838,0.652-11.534,1.899-17.003c0-0.028,0.028-0.028,0.028-0.057
				c1.984-5.214,4.109-8.275,4.109-8.275c0.113-2.749,0.708-5.469,1.644-8.161c3.797-7.821,8.87-14.906,14.991-20.97
				c-7.566,12.78-10.315,28.877-10.315,28.877l9.04,4.109L665.263,1055.845z"/>
		</g>
	</g>
	<path fill="none" stroke="#010D28" stroke-width="0.5" stroke-miterlimit="10" d="M486.924,573.558"/>
	<path fill="#222233" d="M486.924,573.558c8.319-12.478,180.93-35.354,235.52-6.759c8.567,4.487,13.458,6.59,9.358,18.717
		c0,0,2.6,0,3.639,3.119c1.04,3.119,1.04,13.518,1.04,13.518s4.679,0.52,6.239,5.719s0,17.157,0,17.157s5.719-1.56,5.719,4.679
		s0.52,9.878,2.08,17.157c1.56,7.279,10.918,35.354,10.918,35.354s7.799,1.56,8.319,11.438s8.319,38.993,10.398,51.991
		s5.199,39.513,5.199,39.513s-67.069,12.478-86.305,4.679s-91.505-23.396-100.343-21.836c-8.839,1.56-15.597,8.839-20.277,2.6
		c-4.679-6.239-12.998-18.717-12.998-25.476c0-6.759-1.56-15.597-1.56-15.597s-14.558-6.759-20.797-21.316
		c0,0-16.117-9.358-20.797-18.197c-4.679-8.839-1.56-11.438-8.319-20.277c-6.759-8.839-22.356-45.232-24.436-55.111
		C487.444,604.752,486.924,573.558,486.924,573.558"/>
	<path fill="#FFBE9C" d="M597.146,758.127c0,0,2.08-21.316,32.755-31.715s54.071-6.759,54.071-6.759s14.038,22.876,17.677,32.755
		c3.639,9.878,7.279,23.916-2.6,37.434c-9.878,13.518-14.558,30.155-21.836,35.874c-7.279,5.719-29.115,7.799-40.033-2.08
		c-10.918-9.878-27.555-42.633-27.555-42.633L597.146,758.127z"/>
	<path fill="#222233" d="M605.984,784.122c0.301-2.634,1.04-3.639,5.719-0.52c4.679,3.119,28.595,27.555,33.794,31.715
		c5.199,4.159,23.396,10.918,29.635,11.958c0,0,0.52,4.679-4.159,6.239c-4.679,1.56-6.239,5.199-10.398,6.759
		c0,0-3.639,4.679-4.679,9.878c-1.04,5.199-15.251,28.422-37.434,47.139c0,0-7.625,18.024-18.717,31.195
		c-11.091,13.171-26.342,33.968-26.342,40.9s-0.693,15.251-3.466,20.103c-2.773,4.853-4.853,13.171-4.159,18.024
		c0.693,4.853-1.517,18.514-1.906,24.089c-0.52,7.452-23.916,17.157-44.193,7.799c-18.368-8.477-18.318-29.599-15.597-44.193
		c5.115-27.437,7.625-27.209,14.558-34.834c6.932-7.625,6.932-18.024,6.932-26.342s15.251-43.673,18.024-51.298
		s8.319-41.593,17.33-54.071c9.012-12.478,18.024-22.183,27.035-27.729C596.973,795.387,605.291,790.188,605.984,784.122z"/>
	<path fill="#5454B5" d="M770.277,924.498c6.239-4.679,4.159-12.478,4.159-12.478s-3.119,3.64-8.319,6.239
		c-32.235,5.719-58.245-18.739-66.549-31.194c-4.159-6.239-5.199-1.56-7.799,1.56c-2.6,3.12-18.197,23.916-30.155,38.473
		c-1.35,1.643-2.594,3.456-3.764,5.363c2.602,6.776,7.042,11.936,13.989,13.094c26.383,7.915,57.943-10.055,81.965,9.661
		C760.198,942.992,765.539,928.052,770.277,924.498z"/>
	<path fill="#5454B5" d="M675.133,827.275c-6.239-1.04-24.436-7.799-29.635-11.958c-5.199-4.159-29.115-28.595-33.794-31.714
		c-4.679-3.12-5.418-2.114-5.719,0.52c-0.693,6.065-9.012,11.264-18.024,16.81c-9.012,5.546-18.024,15.251-27.035,27.729
		c-0.827,1.145-1.625,2.475-2.394,3.945c7.025,7.88,11.824,17.428,16.605,26.989c13.431,21.49,37.607,10.745,59.097,13.431
		c1.943,0.648,3.725,1.614,5.28,2.811c9.825-11.961,15.727-22.409,16.383-25.687c1.04-5.199,4.679-9.878,4.679-9.878
		c4.159-1.56,5.719-5.199,10.398-6.759C675.653,831.954,675.133,827.275,675.133,827.275z"/>
	<path fill="#B5453D" d="M502.522,1002.486c0,0-1.04,19.237,12.478,24.956c0,0,7.279-6.759,14.558-5.199
		c7.279,1.56,6.759-3.12,12.478-2.08c5.719,1.04,18.717,4.679,22.876-1.04c0,0,2.08,2.6,1.04,15.077
		c-1.04,12.478,0,31.195,1.04,37.954c1.04,6.759,6.759,26.516,5.719,42.113c-1.04,15.597-4.679,29.115-21.836,28.075
		c-17.157-1.04-35.354-11.438-43.153-29.115s-11.958-41.593-9.878-59.79S495.763,1002.486,502.522,1002.486z"/>
	<path fill="#FFBE9C" d="M501.482,220.017c0,0-35.354,5.199-57.71,2.08c-22.356-3.119-81.106-1.56-114.901,4.679
		s-86.825,4.159-99.823,5.199s-38.993,4.159-45.232,3.639s-5.719,2.6-10.398,5.719s-18.717,12.478-20.797,13.518
		s-3.119,9.358-3.119,13.518s-1.56,9.878,1.56,12.998s4.679,9.878,8.319,9.358c3.639-0.52,4.159-6.239,4.159-6.239
		s4.159,2.08,8.319,1.04c0,0,0,5.719,3.119,6.239c3.119,0.52,7.799,1.04,7.799,1.04s0,3.639,0.52,6.239
		c0.52,2.6,6.759,3.639,8.319-5.199c0,0,3.639-1.04,6.239-1.56c2.6-0.52,4.159-5.719,0-8.839v-8.319c0,0,9.358,0,18.717,0
		s24.436-4.159,30.675-10.918c0,0,42.633,2.6,69.148,7.279c26.516,4.679,67.589,13.518,97.744,14.038
		c30.155,0.52,44.712-3.639,61.87-3.639c17.157,0,43.673,3.119,47.832-6.239S501.482,220.017,501.482,220.017z"/>
	<path fill="#FFBE9C" d="M911.693,421.743c0,0,23.916-30.848,53.378-30.155c0,0,21.49,22.876,24.956,24.263
		c0,0,7.279-4.506,14.558-4.506c7.279,0,10.745,1.04,13.518,6.586s5.892,2.08,9.705,6.239c3.813,4.159,2.08,5.546,4.506,8.665
		s6.239,1.386,9.358,9.358c1.386,4.853,5.546,1.04,7.279,9.012c1.733,7.972,0.693,12.131,1.733,18.024
		c1.04,5.892-2.08,8.319-4.506,12.478s-4.506,10.052-9.705,6.239c-5.199-3.813,1.04-13.171,1.04-13.171l0.693-7.625l-3.12-2.426
		c0,0,0,4.506-3.466,9.358c-3.466,4.853-7.972,13.171-10.052,15.251s-9.705-2.08-7.972-10.052c0,0-3.466,2.773-4.506,5.892
		c-1.04,3.119-6.932,6.239-12.131,2.773c0,0-13.518,0-20.45-4.159c-6.932-4.159-16.984-10.052-27.729-22.876
		C938.035,448.085,924.864,439.42,911.693,421.743z"/>
	<path fill="#FFF8DD" d="M821.228,221.057c10.918,3.119,11.958,6.759,17.157,10.918c5.199,4.159,18.197,12.998,23.396,19.237
		c5.199,6.239,4.159,10.398,17.157,19.757s35.354,28.075,45.232,46.272c9.878,18.197,15.597,34.314,19.757,40.033
		c4.159,5.719,3.639,8.839,3.639,8.839s16.637,20.797,20.797,23.916c0,0-42.633,38.474-62.39,33.274
		c0,0-13.518-20.277-18.717-23.916c-5.199-3.639-29.115-22.876-34.314-24.956c-5.199-2.08-10.918,5.719-19.757,14.558
		s-50.951,58.23-67.069,74.348s-20.797,17.677-23.396,28.075s-7.279,13.518-7.279,13.518s2.6,9.878-1.56,15.597
		c-4.159,5.719-7.279,9.878-7.279,9.878s2.08,11.438,2.08,14.558c0,3.119-7.799,7.279-7.799,7.279s2.875,10.705,4.159,14.558
		c1.56,4.679,2.6,12.998-2.6,17.157c-5.199,4.159-19.237,22.356-31.715,23.916s-72.788-23.916-93.584-32.755
		c-20.796-8.839-51.471-9.878-66.549-4.159c-15.077,5.719-37.434,8.319-44.193,0.52c-6.759-7.799-7.279-12.998-1.04-22.876
		c0,0,5.719-28.595,11.958-34.834s15.597-29.635,23.396-39.513c7.799-9.878,15.077-20.277,15.077-20.277s4.333-34.314,11.265-46.792
		c6.932-12.478,21.49-84.572,27.035-97.05s5.546-22.876,5.546-22.876l-11.091-1.386c0,0-13.171,2.773-21.49,2.08
		c0,0-9.705,1.386-13.864,4.159s-6.932,1.386-11.091-2.08s-24.263-21.49-27.035-38.82c-2.773-17.33,0-34.661,4.159-33.968
		c4.159,0.693,23.569-2.773,29.808-3.466c6.239-0.693,41.593-18.717,51.991-22.183c10.398-3.466,26.342-5.546,26.342-5.546
		s32.581-9.705,58.23-8.319c25.649,1.386,40.207-1.386,46.445,3.466c0,0,6.239,0.693,15.251,3.466S821.228,221.057,821.228,221.057z
		"/>
	<path fill="#5454B5" d="M623.488,526.506c-21.49-5.372-21.49-45.666-45.666-45.666c-18.916,0-43.321,4.382-59.151-3.726
		c-7.341,10.947-15.646,30.952-21.348,36.654c-6.239,6.239-11.958,34.834-11.958,34.834c-6.239,9.879-5.719,15.077,1.04,22.876
		c6.759,7.798,29.115,5.199,44.193-0.52c15.078-5.719,45.752-4.679,66.549,4.159c20.797,8.839,81.106,34.315,93.584,32.755
		c12.478-1.56,26.515-19.756,31.715-23.916c5.199-4.16,4.159-12.478,2.6-17.157c-1.284-3.852-4.159-14.558-4.159-14.558
		s7.799-4.159,7.799-7.278c0-3.12-2.08-14.558-2.08-14.558s2.635-3.514,6.276-8.503c-5.966-4.418-11.943-9.306-18.061-14.2
		C685.271,486.212,658.409,537.25,623.488,526.506z"/>
	<path fill="#5454B5" d="M542.902,239.081c-10.253-7.689,6.385-20.271,5.597-33.076c-8.967,4.082-16.822,7.48-19.462,7.773
		c-6.239,0.693-25.649,4.159-29.808,3.467c-4.159-0.694-6.932,16.637-4.159,33.967c2.773,17.331,22.876,35.354,27.035,38.82
		c4.159,3.466,6.932,4.852,11.091,2.08c4.159-2.773,13.864-4.159,13.864-4.159c0.724,0.06,1.494,0.086,2.279,0.098
		c2.325-2.009,4.329-4.66,6.992-5.991C567.078,265.943,553.647,252.512,542.902,239.081z"/>
	<path fill="#5454B5" d="M947.567,366.112c0,0,0.52-3.12-3.639-8.838c-1.154-1.586-2.434-3.997-3.884-7.005
		c-2.539,2.215-4.336,5.359-4.955,9.692c-2.686,13.431,0,29.548-16.117,34.921c-10.592,2.648-23.789-2.514-34.455,2.484
		c1.155,0.874,2.093,1.569,2.74,2.022c5.199,3.639,18.717,23.916,18.717,23.916c19.757,5.199,62.389-33.274,62.389-33.274
		C964.204,386.909,947.567,366.112,947.567,366.112z"/>
	<g>
		<path fill="#222233" d="M720.33,339.335c-6.79-4.316-17.973-3.487-20.022-2.978c-2.049,0.509-8.999,6.963-9.482,11.66
			c-0.484,4.697,6.365,7.497,6.365,7.497s-9.215,10.018-11.684,20.01c-2.469,9.992-6.211,20.901-12.282,30.588
			s-14.866,22.301-12.435,26.349c2.431,4.048,11.698,7.522,14.46,2.634c2.762-4.888,10.908-20.417,15.846-28.322
			s6.987-20.494,9.838-25.929c2.851-5.435,9.686-18.088,13.721-23.893C718.689,351.147,727.458,343.866,720.33,339.335z"/>
		<path fill="#222233" d="M747.626,444.346c3.08-5.117,9.291-26.018,12.587-34.19c3.297-8.172,1.043-13.314-4.812-18.762
			c-5.856-5.448-21.958-8.349-21.958-8.349s6.02-11.1,12.486-12.857c6.466-1.756,24.376,9.024,27.711,10.971
			c3.335,1.947,10.844-5.499,10.488-10.934c-0.242-3.692-3.17-6.415-8.147-8.63c-4.977-2.215-14.562-5.46-21.869-8.897
			c-7.306-3.437-16.726,0.93-23.128,7.473c-6.403,6.542-16.19,21.805-17.488,28.055c-1.298,6.25-7.191,14.842-12.664,26.031
			c-5.473,11.189-10.258,23.332-5.167,31.745c5.092,8.414,18.826,12.053,28.678,13.657
			C734.197,461.263,744.545,449.463,747.626,444.346z M724.408,440.286c-5.74,0.751-9.903-3.016-12.602-5.422
			c-2.699-2.406-2.177-9.063,3.042-15.237s4.607-11.049,7.917-15.848c3.309-4.799,7.777-4.633,12.525-2.737
			c5.252,2.098,6.365,7.497,5.104,11.786c-1.26,4.29-4.289,10.82-4.912,14.651C734.858,431.312,730.149,439.535,724.408,440.286z"/>
	</g>
	<path fill="#B8925E" d="M732.843,139.604c0,0-0.347-19.757,1.733-25.302c2.08-5.546,3.466-16.984,10.398-18.37
		c0,0-4.506-2.08-7.279-1.04c0,0-0.693-4.506,4.853-6.932l-4.159-1.386c0,0,0.347-6.586,8.319-9.012c0,0,5.199-10.398,16.984-12.825
		c0,0,5.199-7.972,12.825-7.279c0,0,23.223-13.171,33.621-4.506c0,0,21.836,2.426,27.035,14.211c0,0,11.438,5.892,15.251,12.478
		c3.813,6.586,3.813,15.944,6.239,22.876s-4.506,19.063-3.813,21.836c0.693,2.773,1.733,29.808-7.972,41.246
		S740.815,202.687,732.843,139.604z"/>
	<path fill="#FFBE9C" d="M846.704,150.869c0,0-1.04-17.677,1.56-31.195c2.6-13.518-14.558-32.755-14.558-32.755
		s-7.279,5.719-15.077,9.358s-8.319-3.119-8.319-3.119s-2.08,1.04-3.119,4.159c-1.04,3.119-9.878,3.119-17.677-3.639
		c-7.799-6.759-16.637-3.119-20.277,2.08c-3.639,5.199-0.52,20.277-8.319,23.396c0,0,2.6-3.639,2.08-11.958
		c-0.52-8.319,1.04-17.677,7.279-19.757c0,0-10.398,0-13.518,7.799c-3.12,7.799-11.438,17.677-11.438,23.396
		c0,5.719,2.6,17.677,0.52,22.356c-2.08,4.679-2.08,17.157-2.08,17.157s-4.679-4.679-4.679-11.438c0-6.759-5.719-10.918-9.358-8.839
		c-3.639,2.08-0.52,12.998,0.52,17.677c1.04,4.679-3.119,23.916,7.799,25.996c0,0-0.52,7.279-2.6,12.998s-5.719,14.558-6.239,27.035
		c-0.52,12.478-1.56,39.513,0.52,47.832s7.279,20.797,20.797,24.956c13.518,4.159,27.555-5.199,37.954-17.677
		s17.677-22.356,20.797-31.195c0,0,9.878-11.958,12.305-18.544s15.251-22.53,18.717-38.474c0,0,6.239,0.347,9.705-4.506
		c3.466-4.853,2.08-13.171,5.546-19.757c3.466-6.586,6.052-16.071,3.813-18.717C855.543,140.99,846.704,150.869,846.704,150.869z"/>
	<path fill="#B8925E" d="M750.174,207.886c1.386,5.546,9.012,21.143,14.211,25.649c5.199,4.506,10.398,16.291,18.717,17.677
		s20.45,2.426,27.035-4.506c6.586-6.932,11.438-15.597,14.211-25.302c0,0-8.665,7.279-12.825,11.438
		c-4.159,4.159-12.478,5.199-12.478,1.733s5.199-6.932,1.733-7.972c-3.466-1.04-9.358-0.347-9.358,1.04
		c0,1.386,2.426,2.773,0.693,6.932c-1.733,4.159-7.972,4.853-10.745,0c-2.773-4.853-5.546-13.518-4.506-16.984
		c1.04-3.466-3.813,0.693-5.546,3.466c-1.733,2.773-7.625-5.199-12.478-9.012C753.986,208.232,750.174,207.886,750.174,207.886z"/>
</g>
</svg>
