<svg width="154" height="172" viewBox="0 0 154 172" fill="none" xmlns="http://www.w3.org/2000/svg">
<g clip-path="url(#clip0_140_4066)" filter="url(#filter0_d_140_4066)">
<path d="M91.8427 56.6809C91.9018 56.9166 91.9644 57.154 91.9615 57.4132L91.8312 64.8676C91.8081 66.2811 90.7619 67.4046 89.4941 67.3772C88.2277 67.3514 87.2212 66.1837 87.2457 64.7687L87.3367 59.4413C85.7274 60.3385 84.0253 61.2059 82.2609 62.0369C82.2615 62.0823 82.2817 62.1208 82.2809 62.1646L82.1335 70.6811C82.1076 72.0945 81.0615 73.2179 79.795 73.1921C78.5259 73.1633 77.5209 71.9973 77.5441 70.5807L77.6566 64.0798C75.7893 64.8632 73.9096 65.6021 72.057 66.286C72.1569 66.5843 72.2171 66.9049 72.2126 67.2434L72.0638 75.7583C72.0405 77.1716 70.993 78.2965 69.7254 78.2694C68.459 78.2405 67.4525 77.0728 67.4769 75.6609L67.6109 67.8547C62.4791 69.5816 57.9427 70.8245 55.2206 71.3696C48.4897 72.7205 49.0251 75.087 48.3935 78.281C47.7618 81.475 48.6539 91.6699 42.2101 98.5895C36.5475 104.67 32.7349 104.589 28.2089 104.156C22.4692 103.606 20.3325 107.669 24.5063 112.511C26.9478 115.343 44.0073 135.135 47.3896 139.059C50.4617 142.623 53.8985 143.702 58.8911 139.16L60.8559 141.096C61.6121 141.842 62.7564 141.815 63.484 141.034L65.8049 138.542C66.5313 137.762 66.6005 136.485 65.9619 135.613L64.1676 133.16C65.6108 131.254 67.0001 129.25 68.5667 127.048L70.6528 129.104C71.409 129.85 72.5547 129.822 73.2809 129.042L75.6021 126.549C76.3284 125.769 76.3976 124.493 75.7591 123.62L73.4631 120.482C75.0135 118.518 76.7699 116.402 78.8626 114.066C79.1584 113.734 79.4579 113.421 79.756 113.115L82.7741 116.087C83.5304 116.833 84.6758 116.806 85.4022 116.026L87.7232 113.533C88.4509 112.752 88.5187 111.477 87.8802 110.604L85.9718 107.993C88.0857 106.467 90.4343 104.808 93.1907 102.489L95.0766 104.348C95.8329 105.094 96.9784 105.067 97.7048 104.287L100.026 101.794C100.753 101.013 100.821 99.7377 100.183 98.8654L98.9424 97.1695C100.884 95.2112 103.003 92.9153 105.33 90.1784L106.865 91.69C107.621 92.4358 108.767 92.4081 109.493 91.6281L111.814 89.1357C112.54 88.3558 112.61 87.0792 111.971 86.2069L110.328 83.96C111.984 81.7818 113.452 79.6915 114.718 77.6967L116.167 79.1246C116.924 79.8704 118.069 79.8426 118.795 79.0627L121.116 76.5703C121.844 75.789 121.912 74.5139 121.273 73.6415L118.803 70.2646C124.024 58.8564 122.373 51.1305 118.362 46.4782C112.963 40.2145 102.901 49.3552 91.8427 56.6809ZM42.0897 111.295C40.2637 113.255 35.0117 118.895 35.0117 118.895C35.0117 118.895 28.4233 111.252 27.6536 110.359C26.8842 109.466 27.1344 107.969 29.0411 107.886C29.8924 107.849 36.9979 107.685 39.1415 106.855C41.2855 106.025 43.9156 109.334 42.0897 111.295ZM67.2453 115.196L47.4652 111.411L52.2597 106.262L72.0397 110.047L67.2453 115.196ZM76.9974 104.723L57.2175 100.938L62.012 95.7898L81.7919 99.575L76.9974 104.723ZM87.2713 93.691L67.4914 89.9059L72.2859 84.7574L92.0658 88.5426L87.2713 93.691Z" fill="#31363F" stroke="#31363F" stroke-width="1.5625"/>
</g>
<defs>
<filter id="filter0_d_140_4066" x="-4" y="0" width="161.631" height="179.474" filterUnits="userSpaceOnUse" color-interpolation-filters="sRGB">
<feFlood flood-opacity="0" result="BackgroundImageFix"/>
<feColorMatrix in="SourceAlpha" type="matrix" values="0 0 0 0 0 0 0 0 0 0 0 0 0 0 0 0 0 0 127 0" result="hardAlpha"/>
<feOffset dy="4"/>
<feGaussianBlur stdDeviation="2"/>
<feComposite in2="hardAlpha" operator="out"/>
<feColorMatrix type="matrix" values="0 0 0 0 0 0 0 0 0 0 0 0 0 0 0 0 0 0 0.25 0"/>
<feBlend mode="normal" in2="BackgroundImageFix" result="effect1_dropShadow_140_4066"/>
<feBlend mode="normal" in="SourceGraphic" in2="effect1_dropShadow_140_4066" result="shape"/>
</filter>
<clipPath id="clip0_140_4066">
<rect width="114.893" height="115.379" fill="white" transform="matrix(0.681502 -0.731816 0.652897 0.757446 0 84.0801)"/>
</clipPath>
</defs>
</svg>
