<svg width="108" height="113" viewBox="0 0 108 113" fill="none" xmlns="http://www.w3.org/2000/svg">
<g filter="url(#filter0_d_140_4055)">
<path d="M80.0752 12.944C57.0948 -1.80504 26.6793 4.94955 12.1398 28.0269C12.1364 28.0337 12.1331 28.0405 12.1263 28.0473C-2.41318 51.1247 4.42794 81.7877 27.4083 96.5334C50.3887 111.279 80.8042 104.528 95.3437 81.4505C95.3471 81.4437 95.3504 81.4369 95.3572 81.4301C109.897 58.3527 103.056 27.6897 80.0752 12.944ZM33.9086 77.2779L17.6681 79.8768L9.30819 58.397L19.3961 45.9097L34.2494 55.7367L33.9086 77.2779ZM48.4076 7.56896L41.8972 17.9069L22.7373 27.5568L17.1179 23.1662C21.2861 15.9245 36.8482 8.05946 39.7979 8.36602C43.8277 6.3359 48.5696 7.30668 48.4076 7.56896ZM82.9642 85.0373L71.3238 98.2842L52.0661 100.624L50.3279 88.0314L69.5182 77.7956L82.9642 85.0373ZM70.1189 58.6627L51.9918 47.8581L56.1093 26.4941L76.2176 26.5656L85.9004 45.8995L70.1223 58.6593L70.1189 58.6627ZM86.6868 20.2027L79.6331 18.3123L71.7693 10.6346C71.7693 10.6346 85.5157 17.0724 86.6868 20.2027ZM95.7521 73.1972L96.8219 54.0268L100.271 47.4902C101.672 48.3895 101.456 68.6464 97.3889 74.9548C94.6923 76.5898 95.7521 73.1972 95.7521 73.1972Z" fill="#31363F"/>
</g>
<defs>
<filter id="filter0_d_140_4055" x="-4" y="0" width="116" height="117" filterUnits="userSpaceOnUse" color-interpolation-filters="sRGB">
<feFlood flood-opacity="0" result="BackgroundImageFix"/>
<feColorMatrix in="SourceAlpha" type="matrix" values="0 0 0 0 0 0 0 0 0 0 0 0 0 0 0 0 0 0 127 0" result="hardAlpha"/>
<feOffset dy="4"/>
<feGaussianBlur stdDeviation="2"/>
<feComposite in2="hardAlpha" operator="out"/>
<feColorMatrix type="matrix" values="0 0 0 0 0 0 0 0 0 0 0 0 0 0 0 0 0 0 0.25 0"/>
<feBlend mode="normal" in2="BackgroundImageFix" result="effect1_dropShadow_140_4055"/>
<feBlend mode="normal" in="SourceGraphic" in2="effect1_dropShadow_140_4055" result="shape"/>
</filter>
</defs>
</svg>
