<?xml version="1.0" encoding="UTF-8"?>
<svg version="1.1" xmlns="http://www.w3.org/2000/svg" width="500" height="500">
<path d="M0 0 C165 0 330 0 500 0 C500 165 500 330 500 500 C335 500 170 500 0 500 C0 335 0 170 0 0 Z " fill="#FEFEFE" transform="translate(0,0)"/>
<path d="M0 0 C1.27399658 0.64122803 1.27399658 0.64122803 2.57373047 1.29541016 C4.03202271 2.01784912 4.03202271 2.01784912 5.51977539 2.75488281 C6.56625244 3.27614746 7.61272949 3.79741211 8.69091797 4.33447266 C39.61080661 19.40512563 71.75358186 30.62801693 105.24462891 38.36206055 C107.56591797 38.95947266 107.56591797 38.95947266 109.56591797 39.95947266 C110.37615075 69.21787882 108.18023928 99.06083875 103.56591797 127.95947266 C103.40397949 129.02278809 103.24204102 130.08610352 103.07519531 131.18164062 C98.96251885 157.85897407 93.64090538 190.35542814 74.56591797 210.95947266 C73.68548828 211.93271484 72.80505859 212.90595703 71.89794922 213.90869141 C69.99120325 216.00783152 68.06925874 218.09156218 66.13623047 220.16650391 C64.14786753 222.32711105 62.24217444 224.50592996 60.37841797 226.77197266 C57.79280498 229.82636534 54.92065631 232.37946791 51.87060547 234.96337891 C49.19340817 237.28210403 46.64077138 239.71516666 44.06591797 242.14697266 C38.22646836 247.57240341 32.0042032 252.36743862 25.53076172 257.01025391 C22.97734339 258.85347416 20.65245659 260.75908795 18.38232422 262.93994141 C10.12812091 270.50531969 1.69970093 271.42755119 -9.32080078 271.28979492 C-20.12287317 270.59967917 -26.73653871 266.76826866 -34.59033203 259.60986328 C-36.94500909 257.50212799 -39.44209651 255.63260008 -41.96948242 253.73901367 C-48.23002177 249.01114105 -54.03401742 243.81546022 -59.75439453 238.45556641 C-62.02518653 236.34035345 -64.32937246 234.2922585 -66.68408203 232.27197266 C-74.45364059 225.49563601 -81.0351323 218.03291391 -87.43408203 209.95947266 C-87.96904297 209.32654297 -88.50400391 208.69361328 -89.05517578 208.04150391 C-123.58201399 165.65489766 -121.93247529 90.12784712 -121.43408203 38.95947266 C-120.56009766 38.77155151 -120.56009766 38.77155151 -119.66845703 38.57983398 C-108.11533403 36.07643027 -96.7409298 33.41323749 -85.52587891 29.65283203 C-83.26766519 28.90431115 -81.00041284 28.18877454 -78.73095703 27.47509766 C-61.27405464 21.91630953 -44.22037072 15.17351568 -27.66455078 7.32666016 C-27.0253923 7.02456635 -26.38623383 6.72247253 -25.72770691 6.41122437 C-22.62628782 4.94130062 -19.53550748 3.4534299 -16.45727539 1.93554688 C-15.34876221 1.40203613 -14.24024902 0.86852539 -13.09814453 0.31884766 C-12.12312988 -0.16100586 -11.14811523 -0.64085938 -10.14355469 -1.13525391 C-6.15090336 -2.46925563 -3.77842546 -1.61521056 0 0 Z " fill="#010101" transform="translate(256.43408203125,88.04052734375)"/>
<path d="M0 0 C1.06476563 0.54043945 2.12953125 1.08087891 3.2265625 1.63769531 C4.45508661 2.2508785 5.68368706 2.86390874 6.91235352 3.47680664 C7.55294708 3.80081451 8.19354065 4.12482239 8.85354614 4.45864868 C45.75327055 23.05927498 86.82092183 41.31701233 128.4609375 44.09863281 C133.17005448 44.95582231 136.140371 47.01196972 139.50195312 50.35913086 C141.42055946 53.70940347 141.24201882 56.86521593 141.1796875 60.61816406 C141.17826752 61.39953735 141.17684753 62.18091064 141.17538452 62.98596191 C141.16621538 65.54210374 141.13465501 68.09738472 141.1015625 70.65332031 C141.0882842 72.42748481 141.07575769 74.20165509 141.06396484 75.97583008 C140.78282843 110.71515699 139.97586361 146.1835086 132.58203125 180.26269531 C132.09293086 182.57480626 131.65829754 184.89907518 131.27734375 187.23144531 C127.36750941 211.03909899 119.90478253 241.82208414 103.8515625 260.71582031 C103.1915625 260.71582031 102.5315625 260.71582031 101.8515625 260.71582031 C101.8515625 261.37582031 101.8515625 262.03582031 101.8515625 262.71582031 C107.38348888 259.65560572 112.62539543 256.27103601 117.8515625 252.71582031 C118.71267766 255.74351346 119.03387143 258.55848668 119.16796875 261.70019531 C119.20986328 262.63476562 119.25175781 263.56933594 119.29492188 264.53222656 C119.33423828 265.5003125 119.37355469 266.46839844 119.4140625 267.46582031 C119.45724609 268.449375 119.50042969 269.43292969 119.54492188 270.44628906 C119.65078302 272.86933307 119.75286421 275.29247571 119.8515625 277.71582031 C120.56812012 277.83175537 121.28467773 277.94769043 122.02294922 278.06713867 C125.25804514 278.59249389 128.49230271 279.12284297 131.7265625 279.65332031 C132.85449219 279.83572266 133.98242188 280.018125 135.14453125 280.20605469 C136.22089844 280.38330078 137.29726563 280.56054688 138.40625 280.74316406 C139.40124512 280.90550537 140.39624023 281.06784668 141.42138672 281.23510742 C143.8515625 281.71582031 143.8515625 281.71582031 145.8515625 282.71582031 C145.8515625 283.37582031 145.8515625 284.03582031 145.8515625 284.71582031 C143.99258447 286.35269459 142.1382691 287.85352315 140.1640625 289.34082031 C139.29841675 290.00090088 139.29841675 290.00090088 138.4152832 290.67431641 C132.48448203 295.12101416 126.24397218 298.9703495 119.8515625 302.71582031 C112.75750855 298.36265085 109.81142586 294.42839567 107.2890625 286.52832031 C105.79959176 281.22832784 105.79959176 281.22832784 101.8515625 277.71582031 C95.42909395 276.93947796 90.48775422 277.41658614 84.8515625 280.71582031 C83.5315625 280.71582031 82.2115625 280.71582031 80.8515625 280.71582031 C81.1815625 279.72582031 81.5115625 278.73582031 81.8515625 277.71582031 C81.1915625 278.04582031 80.5315625 278.37582031 79.8515625 278.71582031 C79.19942958 280.74045286 79.19942958 280.74045286 78.8515625 282.71582031 C82.58237635 282.34273893 85.40826119 281.95674494 88.7265625 280.15332031 C92.72507274 278.3140056 96.50553282 277.87144883 100.8515625 278.71582031 C104.39836256 281.0919162 105.24363869 285.12031854 106.6015625 288.96582031 C108.94923653 295.21610195 111.45577392 299.58073 116.8515625 303.71582031 C122.91278699 308.43010603 122.91278699 308.43010603 123.8515625 311.71582031 C123.97893947 315.15499844 123.83770287 317.54198555 121.55859375 320.25488281 C102.04678398 336.36397079 69.93373268 341.39785455 45.8515625 346.71582031 C46.8415625 347.37582031 47.8315625 348.03582031 48.8515625 348.71582031 C49.0390625 351.84082031 49.0390625 351.84082031 48.8515625 354.71582031 C47.5315625 353.39582031 46.2115625 352.07582031 44.8515625 350.71582031 C43.8615625 351.04582031 42.8715625 351.37582031 41.8515625 351.71582031 C41.5215625 354.02582031 41.1915625 356.33582031 40.8515625 358.71582031 C41.8415625 358.71582031 42.8315625 358.71582031 43.8515625 358.71582031 C44.5115625 357.39582031 45.1715625 356.07582031 45.8515625 354.71582031 C46.1815625 357.35582031 46.5115625 359.99582031 46.8515625 362.71582031 C45.2015625 362.05582031 43.5515625 361.39582031 41.8515625 360.71582031 C42.1815625 363.35582031 42.5115625 365.99582031 42.8515625 368.71582031 C44.5015625 368.38582031 46.1515625 368.05582031 47.8515625 367.71582031 C48.5115625 365.73582031 49.1715625 363.75582031 49.8515625 361.71582031 C51.312191 364.36320948 51.8515625 365.61030366 51.8515625 368.71582031 C46.58468531 370.47144604 42.40760355 370.808421 36.8515625 370.71582031 C36.34822708 368.11225791 35.84876872 365.5080538 35.3515625 362.90332031 C35.20847656 362.16533203 35.06539062 361.42734375 34.91796875 360.66699219 C34.34229969 357.63787641 33.8515625 354.80662431 33.8515625 351.71582031 C32.5315625 351.71582031 31.2115625 351.71582031 29.8515625 351.71582031 C30.01205078 353.48699219 30.01205078 353.48699219 30.17578125 355.29394531 C30.29773259 356.85117006 30.41877903 358.40846585 30.5390625 359.96582031 C30.61189453 360.743125 30.68472656 361.52042969 30.75976562 362.32128906 C31.17569962 368.0464982 31.17569962 368.0464982 29.6484375 371.20019531 C26.45343846 373.89510755 22.91762023 374.02463482 18.8515625 373.71582031 C16.00908684 371.86821114 15.10480291 370.69691727 14.26171875 367.43066406 C13.82542525 364.54281659 13.75389433 361.82227809 13.7890625 358.90332031 C13.79808594 357.9275 13.80710937 356.95167969 13.81640625 355.94628906 C13.82800781 355.21023438 13.83960938 354.47417969 13.8515625 353.71582031 C12.5315625 353.71582031 11.2115625 353.71582031 9.8515625 353.71582031 C9.8515625 356.02582031 9.8515625 358.33582031 9.8515625 360.71582031 C9.1915625 360.38582031 8.5315625 360.05582031 7.8515625 359.71582031 C7.2265625 357.65332031 7.2265625 357.65332031 6.8515625 355.71582031 C4.5415625 355.38582031 2.2315625 355.05582031 -0.1484375 354.71582031 C-1.96487511 357.82971335 -2.4203413 360.1235974 -2.3984375 363.71582031 C-2.40359375 364.56144531 -2.40875 365.40707031 -2.4140625 366.27832031 C-2.12919961 368.89235621 -1.54910343 370.50218045 -0.1484375 372.71582031 C1.8851573 373.98386597 1.8851573 373.98386597 3.8515625 374.71582031 C-0.48799141 375.1497757 -2.69693136 374.97501828 -6.5234375 372.77832031 C-9.56155507 369.9035424 -10.19467643 367.03148343 -10.37890625 362.93066406 C-9.99952516 359.28474753 -8.60868215 357.36531455 -6.1484375 354.71582031 C-4.17097737 353.6719566 -2.17280498 352.66552358 -0.1484375 351.71582031 C-0.70838913 351.68267731 -1.26834076 351.6495343 -1.84526062 351.61538696 C-7.73559467 351.26553551 -13.62536428 350.90710306 -19.51489258 350.54394531 C-21.70551739 350.40996017 -23.89627196 350.27807769 -26.0871582 350.1484375 C-49.41638076 348.76517687 -49.41638076 348.76517687 -60.1484375 346.71582031 C-61.1072583 346.54066895 -62.0660791 346.36551758 -63.05395508 346.18505859 C-128.37346678 333.90238265 -128.37346678 333.90238265 -140.1484375 316.71582031 C-140.82878349 313.58622877 -140.81473799 311.76876963 -139.078125 309.02441406 C-136.96705062 306.4461347 -134.81185151 304.21499732 -132.14453125 302.20800781 C-126.17013337 297.69603371 -124.42332143 293.05805117 -122.3515625 285.92285156 C-121.07484781 282.51966079 -120.04051598 280.8875276 -117.1484375 278.71582031 C-111.47869386 277.40662496 -107.12868761 279.00916265 -102.1484375 281.71582031 C-98.41071916 282.42949272 -98.41071916 282.42949272 -95.1484375 282.71582031 C-95.8084375 281.06582031 -96.4684375 279.41582031 -97.1484375 277.71582031 C-97.4784375 277.71582031 -97.8084375 277.71582031 -98.1484375 277.71582031 C-97.6534375 279.20082031 -97.6534375 279.20082031 -97.1484375 280.71582031 C-100.11114928 280.30241867 -102.74736955 279.88713742 -105.5078125 278.70800781 C-110.01009135 277.01632316 -114.4235974 276.92590896 -119.1484375 277.71582031 C-122.19317336 280.52634572 -122.82316604 282.61172987 -123.98046875 286.54003906 C-126.2108066 294.10420616 -128.59739716 298.20005464 -135.1484375 302.71582031 C-145.35285553 297.50505366 -154.48699557 291.20679711 -163.1484375 283.71582031 C-159.75225535 281.45169888 -157.59708798 281.18664647 -153.5859375 280.65332031 C-149.22031795 280.16630936 -149.22031795 280.16630936 -145.1484375 278.71582031 C-143.60819754 278.6463149 -142.06508762 278.63129674 -140.5234375 278.65332031 C-139.29753906 278.66685547 -139.29753906 278.66685547 -138.046875 278.68066406 C-137.10714844 278.69806641 -137.10714844 278.69806641 -136.1484375 278.71582031 C-136.12338135 278.10585205 -136.0983252 277.49588379 -136.07250977 276.86743164 C-135.9560317 274.08754134 -135.83354118 271.30794691 -135.7109375 268.52832031 C-135.67162109 267.56861328 -135.63230469 266.60890625 -135.59179688 265.62011719 C-135.54990234 264.68876953 -135.50800781 263.75742187 -135.46484375 262.79785156 C-135.42818604 261.94425049 -135.39152832 261.09064941 -135.35375977 260.21118164 C-135.14312656 257.65127437 -134.70002214 255.22248788 -134.1484375 252.71582031 C-133.45234375 253.19148438 -133.45234375 253.19148438 -132.7421875 253.67675781 C-127.72359094 257.0661831 -122.64209835 260.3550624 -117.5234375 263.59082031 C-116.84595459 264.02023926 -116.16847168 264.4496582 -115.47045898 264.89208984 C-111.98753857 267.06549747 -108.49193105 269.09523357 -104.81640625 270.92675781 C-104.12691895 271.2723877 -103.43743164 271.61801758 -102.72705078 271.97412109 C-101.41352075 272.62022899 -100.09040771 273.24731533 -98.75732422 273.85205078 C-95.53836244 275.43127992 -94.30615804 276.27165143 -93.0859375 279.70800781 C-93.1540894 282.98781777 -93.5412612 284.09731263 -95.5859375 286.59082031 C-96.05902344 287.18636719 -96.53210938 287.78191406 -97.01953125 288.39550781 C-97.39207031 288.83121094 -97.76460938 289.26691406 -98.1484375 289.71582031 C-102.83900391 289.12949951 -107.23812481 287.36533124 -111.1484375 284.71582031 C-111.6434375 283.23082031 -111.6434375 283.23082031 -112.1484375 281.71582031 C-111.4884375 281.38582031 -110.8284375 281.05582031 -110.1484375 280.71582031 C-111.1384375 280.71582031 -112.1284375 280.71582031 -113.1484375 280.71582031 C-113.01532996 283.12820788 -113.01532996 283.12820788 -112.1484375 285.71582031 C-93.69237943 300.17548785 -59.90740219 305.1666461 -37.1484375 306.71582031 C-35.96749512 306.79823975 -35.96749512 306.79823975 -34.76269531 306.88232422 C-28.56108948 307.29086374 -22.36056637 307.53735518 -16.1484375 307.71582031 C-15.24883301 307.74450195 -14.34922852 307.77318359 -13.42236328 307.80273438 C2.83285168 308.26062775 18.7463107 306.88722873 34.8515625 304.71582031 C35.72570801 304.59835449 36.59985352 304.48088867 37.50048828 304.35986328 C43.80198141 303.52912027 43.80198141 303.52912027 49.8515625 301.71582031 C51.46562458 299.40121243 51.46562458 299.40121243 52.8515625 296.71582031 C54.52539335 295.0338772 56.26028676 293.41136137 58.0390625 291.84082031 C59.01488281 290.97199219 59.99070312 290.10316406 60.99609375 289.20800781 C63.3953446 287.11399681 65.8087264 285.03825125 68.2265625 282.96582031 C71.50716051 280.11951735 74.13150004 277.09751958 76.8515625 273.71582031 C78.51822917 272.04915365 80.18489583 270.38248698 81.8515625 268.71582031 C131.81142735 216.02230248 129.3398959 123.50723329 129.8515625 55.71582031 C129.1814917 55.74192383 128.5114209 55.76802734 127.82104492 55.79492188 C120.92839428 55.94628989 114.83642962 55.12940941 108.1640625 53.46582031 C107.20419434 53.23548096 106.24432617 53.0051416 105.25537109 52.76782227 C103.33090543 52.30414401 101.40767997 51.83528279 99.48583984 51.36083984 C97.23308134 50.80923762 94.97746841 50.2835469 92.71484375 49.77441406 C64.84602855 43.28042682 38.70532915 31.61075245 12.8671875 19.57519531 C11.87654297 19.11435547 10.88589844 18.65351562 9.86523438 18.17871094 C7.77439205 17.1637784 5.70881975 16.0957545 3.66601562 14.98730469 C2.11043945 14.1490918 2.11043945 14.1490918 0.5234375 13.29394531 C-0.39856445 12.77735352 -1.32056641 12.26076172 -2.27050781 11.72851562 C-7.2746949 9.9676259 -11.01561006 11.25106671 -15.8034668 13.21533203 C-17.11439656 13.8494362 -18.4206083 14.49336052 -19.72265625 15.14550781 C-21.19603257 15.86078881 -22.66950665 16.57586847 -24.14306641 17.29077148 C-24.90854797 17.66640228 -25.67402954 18.04203308 -26.46270752 18.42904663 C-48.39471216 29.1654801 -70.78598345 38.52354565 -94.1484375 45.71582031 C-94.87063477 45.93963379 -95.59283203 46.16344727 -96.33691406 46.39404297 C-112.23920945 51.28893556 -128.38866209 55.82139174 -145.1484375 55.71582031 C-144.44598463 108.36963462 -144.44598463 108.36963462 -139.1484375 160.71582031 C-139.00148438 161.73579102 -138.85453125 162.75576172 -138.703125 163.80664062 C-133.44861729 199.90911627 -125.93054215 237.70814876 -100.44921875 265.26904297 C-97.77744216 268.24069239 -95.48064215 271.47664718 -93.1484375 274.71582031 C-98.55035477 273.14891803 -103.24418239 270.71918636 -108.1484375 268.02832031 C-108.92960937 267.61904297 -109.71078125 267.20976562 -110.515625 266.78808594 C-128.57417113 256.89236748 -135.45576848 232.23831343 -141.04785156 213.74072266 C-147.33797163 191.53964363 -150.88215038 168.73950376 -153.3984375 145.84082031 C-153.48152161 145.09724274 -153.56460571 144.35366516 -153.65020752 143.58755493 C-155.93216563 122.87358052 -156.39318694 102.0857248 -156.49853516 81.25952148 C-156.51534755 78.82485567 -156.54295284 76.39024385 -156.58056641 73.95581055 C-156.63506582 70.38467748 -156.65713223 66.81465534 -156.671875 63.24316406 C-156.70587906 61.61362038 -156.70587906 61.61362038 -156.74057007 59.95115662 C-156.71944458 52.46664826 -156.71944458 52.46664826 -153.75756836 48.57202148 C-148.59174956 44.89692835 -143.60043001 44.19912933 -137.4609375 43.34082031 C-122.05756373 41.02408886 -107.3080106 37.46463115 -92.53857422 32.51464844 C-90.21653679 31.73858036 -87.88814099 30.98461094 -85.55859375 30.23144531 C-61.37868708 22.24901664 -38.28594109 11.07559115 -15.49145508 -0.18359375 C-9.86947303 -2.82440807 -5.73562867 -2.33943911 0 0 Z " fill="#044BA9" transform="translate(258.1484375,52.2841796875)"/>
<path d="M0 0 C1.06476563 0.54043945 2.12953125 1.08087891 3.2265625 1.63769531 C4.45508661 2.2508785 5.68368706 2.86390874 6.91235352 3.47680664 C7.55294708 3.80081451 8.19354065 4.12482239 8.85354614 4.45864868 C45.75327055 23.05927498 86.82092183 41.31701233 128.4609375 44.09863281 C133.17005448 44.95582231 136.140371 47.01196972 139.50195312 50.35913086 C141.42055946 53.70940347 141.24201882 56.86521593 141.1796875 60.61816406 C141.17826752 61.39953735 141.17684753 62.18091064 141.17538452 62.98596191 C141.16621538 65.54210374 141.13465501 68.09738472 141.1015625 70.65332031 C141.0882842 72.42748481 141.07575769 74.20165509 141.06396484 75.97583008 C140.78282843 110.71515699 139.97586361 146.1835086 132.58203125 180.26269531 C132.09293086 182.57480626 131.65829754 184.89907518 131.27734375 187.23144531 C127.5207013 210.10628721 120.20352383 245.71176004 101.8515625 261.71582031 C98.37555602 263.99879836 94.7873482 266.05195446 91.1640625 268.09082031 C89.72063477 268.92806641 89.72063477 268.92806641 88.24804688 269.78222656 C87.32958984 270.30429687 86.41113281 270.82636719 85.46484375 271.36425781 C84.62735596 271.84040527 83.78986816 272.31655273 82.92700195 272.80712891 C82.24210693 273.10699707 81.55721191 273.40686523 80.8515625 273.71582031 C80.1915625 273.38582031 79.5315625 273.05582031 78.8515625 272.71582031 C79.21765625 272.32394531 79.58375 271.93207031 79.9609375 271.52832031 C130.54131832 215.64904246 129.31576499 126.7043716 129.8515625 55.71582031 C129.1814917 55.74192383 128.5114209 55.76802734 127.82104492 55.79492188 C120.92839428 55.94628989 114.83642962 55.12940941 108.1640625 53.46582031 C107.20419434 53.23548096 106.24432617 53.0051416 105.25537109 52.76782227 C103.33090543 52.30414401 101.40767997 51.83528279 99.48583984 51.36083984 C97.23308134 50.80923762 94.97746841 50.2835469 92.71484375 49.77441406 C64.84602855 43.28042682 38.70532915 31.61075245 12.8671875 19.57519531 C11.87654297 19.11435547 10.88589844 18.65351562 9.86523438 18.17871094 C7.77439205 17.1637784 5.70881975 16.0957545 3.66601562 14.98730469 C2.11043945 14.1490918 2.11043945 14.1490918 0.5234375 13.29394531 C-0.39856445 12.77735352 -1.32056641 12.26076172 -2.27050781 11.72851562 C-7.2746949 9.9676259 -11.01561006 11.25106671 -15.8034668 13.21533203 C-17.11439656 13.8494362 -18.4206083 14.49336052 -19.72265625 15.14550781 C-21.19603257 15.86078881 -22.66950665 16.57586847 -24.14306641 17.29077148 C-24.90854797 17.66640228 -25.67402954 18.04203308 -26.46270752 18.42904663 C-48.39471216 29.1654801 -70.78598345 38.52354565 -94.1484375 45.71582031 C-94.87063477 45.93963379 -95.59283203 46.16344727 -96.33691406 46.39404297 C-112.23920945 51.28893556 -128.38866209 55.82139174 -145.1484375 55.71582031 C-144.44598463 108.36963462 -144.44598463 108.36963462 -139.1484375 160.71582031 C-139.00148438 161.73579102 -138.85453125 162.75576172 -138.703125 163.80664062 C-133.44861729 199.90911627 -125.93054215 237.70814876 -100.44921875 265.26904297 C-97.77744216 268.24069239 -95.48064215 271.47664718 -93.1484375 274.71582031 C-98.55035477 273.14891803 -103.24418239 270.71918636 -108.1484375 268.02832031 C-108.92960937 267.61904297 -109.71078125 267.20976562 -110.515625 266.78808594 C-128.57417113 256.89236748 -135.45576848 232.23831343 -141.04785156 213.74072266 C-147.33797163 191.53964363 -150.88215038 168.73950376 -153.3984375 145.84082031 C-153.48152161 145.09724274 -153.56460571 144.35366516 -153.65020752 143.58755493 C-155.93216563 122.87358052 -156.39318694 102.0857248 -156.49853516 81.25952148 C-156.51534755 78.82485567 -156.54295284 76.39024385 -156.58056641 73.95581055 C-156.63506582 70.38467748 -156.65713223 66.81465534 -156.671875 63.24316406 C-156.69454437 62.15680161 -156.71721375 61.07043915 -156.74057007 59.95115662 C-156.71944458 52.46664826 -156.71944458 52.46664826 -153.75756836 48.57202148 C-148.59174956 44.89692835 -143.60043001 44.19912933 -137.4609375 43.34082031 C-122.05756373 41.02408886 -107.3080106 37.46463115 -92.53857422 32.51464844 C-90.21653679 31.73858036 -87.88814099 30.98461094 -85.55859375 30.23144531 C-61.37868708 22.24901664 -38.28594109 11.07559115 -15.49145508 -0.18359375 C-9.86947303 -2.82440807 -5.73562867 -2.33943911 0 0 Z " fill="#050505" transform="translate(258.1484375,52.2841796875)"/>
<path d="M0 0 C2.34038165 1.34063478 4.40455031 2.66568251 6.5625 4.25 C7.12646484 4.64574219 7.69042969 5.04148438 8.27148438 5.44921875 C16.63440277 11.41574532 16.63440277 11.41574532 17.75 16.25 C17.8325 17.1575 17.915 18.065 18 19 C18.4640625 17.7625 18.4640625 17.7625 18.9375 16.5 C22.34635657 9.68228687 30.05727258 3.85147733 37 1 C45.44877974 -0.25228949 52.38393765 5.5190381 59 10 C59.99 10.66 60.98 11.32 62 12 C62.99160311 19.43169212 63.04947664 29.39232683 58.75390625 35.8828125 C57.375 37.5625 57.375 37.5625 55 40 C56.051875 39.319375 57.10375 38.63875 58.1875 37.9375 C60.90327009 36.3643405 61.70477974 35.97487487 64.9375 36.25 C65.9584375 36.62125 65.9584375 36.62125 67 37 C67 38.65 67 40.3 67 42 C67.66 42 68.32 42 69 42 C67.69801287 46.9860189 65.50606767 50.2107141 62 53.875 C61.50725586 54.39602295 61.01451172 54.9170459 60.50683594 55.45385742 C46.72688677 69.76635434 30.36824994 77.74590559 10.36743164 78.40014648 C-7.76115555 78.6470684 -23.85656879 73.82133737 -37.9375 62.01953125 C-40.80020098 59.21646988 -42.32325762 56.63294183 -44 53 C-44.35835937 52.3709375 -44.71671875 51.741875 -45.0859375 51.09375 C-46.15441339 48.64630095 -46.20313005 46.9064217 -46.125 44.25 C-46.10695312 43.45078125 -46.08890625 42.6515625 -46.0703125 41.828125 C-46.04710937 41.22484375 -46.02390625 40.6215625 -46 40 C-35.60321447 36.1185334 -35.60321447 36.1185334 -31 37 C-28.14829594 38.79205446 -25.56070198 40.81625415 -23 43 C-22.67 42.34 -22.34 41.68 -22 41 C-22.598125 40.7525 -23.19625 40.505 -23.8125 40.25 C-26.80009454 38.54280312 -28.46317767 36.55714025 -29.58984375 33.2890625 C-30.14091508 30.21355962 -30.03168139 27.37000329 -29.875 24.25 C-29.80925781 22.49429688 -29.80925781 22.49429688 -29.7421875 20.703125 C-28.62831828 15.14550383 -26.6340746 10.8422063 -21.89013672 7.52441406 C-19.46882901 6.21627639 -17.02762275 5.08769065 -14.5 4 C-13.65824219 3.60683594 -12.81648438 3.21367187 -11.94921875 2.80859375 C-7.78850994 0.92808441 -4.64381746 -0.42161159 0 0 Z " fill="#080808" transform="translate(244,220)"/>
<path d="M0 0 C2.34038165 1.34063478 4.40455031 2.66568251 6.5625 4.25 C7.12646484 4.64574219 7.69042969 5.04148438 8.27148438 5.44921875 C9.87606339 6.59400612 11.43929513 7.79608462 13 9 C13.79277344 9.57234375 14.58554687 10.1446875 15.40234375 10.734375 C17.93206452 14.32175409 17.35479885 17.7500713 17 22 C16.90887939 23.14734619 16.90887939 23.14734619 16.81591797 24.31787109 C15.27750893 39.8847099 15.27750893 39.8847099 11 43.875 C9.15234375 45.02734375 9.15234375 45.02734375 7 46 C6.13503906 46.41378906 5.27007812 46.82757813 4.37890625 47.25390625 C-1.27580374 49.63029616 -5.94898548 50.70688162 -12 49 C-14.65592296 47.65755415 -16.95570824 45.99583967 -19.3125 44.1875 C-20.22225586 43.52911133 -20.22225586 43.52911133 -21.15039062 42.85742188 C-24.8932218 40.08632684 -28.01568055 37.58798597 -29.6953125 33.171875 C-30.11902516 30.15156427 -30.02796124 27.29592388 -29.875 24.25 C-29.83117187 23.07953125 -29.78734375 21.9090625 -29.7421875 20.703125 C-28.62831828 15.14550383 -26.6340746 10.8422063 -21.89013672 7.52441406 C-19.46882901 6.21627639 -17.02762275 5.08769065 -14.5 4 C-13.65824219 3.60683594 -12.81648438 3.21367187 -11.94921875 2.80859375 C-7.78850994 0.92808441 -4.64381746 -0.42161159 0 0 Z " fill="#FBFBFB" transform="translate(244,220)"/>
<path d="M0 0 C4.52109124 2.41300102 8.75505325 5.12495989 13 8 C13.99 8.66 14.98 9.32 16 10 C17.09680923 18.22017237 16.87269011 27.98476269 11.9375 34.8828125 C8.68384613 38.61109217 4.80731055 41.24531069 0.6875 43.9375 C-0.3943457 44.69643555 -0.3943457 44.69643555 -1.49804688 45.47070312 C-5.07492801 47.82214158 -7.78487441 49.41522073 -12.14453125 49.03125 C-16.04837585 47.98706056 -18.94638988 46.68224482 -22.375 44.5625 C-23.39335937 43.94503906 -24.41171875 43.32757813 -25.4609375 42.69140625 C-28 41 -28 41 -30 39 C-29.86782496 36.45563053 -29.6250146 34.07285462 -29.25 31.5625 C-29.14494141 30.8418335 -29.03988281 30.12116699 -28.93164062 29.37866211 C-28.71785404 27.92507529 -28.50044109 26.47201691 -28.27929688 25.01953125 C-28.04036536 23.29187263 -27.89352253 21.55190645 -27.765625 19.8125 C-27.19930629 13.94943568 -25.65387358 11.10831865 -21.3125 7.0625 C-19.57003373 5.6720219 -17.80088432 4.31393825 -16 3 C-15.06027344 2.26716797 -15.06027344 2.26716797 -14.1015625 1.51953125 C-9.39811664 -1.7154679 -5.22117649 -1.77426207 0 0 Z " fill="#FBFBFB" transform="translate(290,222)"/>
<path d="M0 0 C2.4375 2 2.4375 2 5 5 C5.60457031 5.67417969 6.20914063 6.34835938 6.83203125 7.04296875 C13.41684248 14.40561919 13.41684248 14.40561919 13.3515625 21.0859375 C12.90303552 24.80372776 11.90325052 28.26459916 10.75 31.8125 C10.54552246 32.45856201 10.34104492 33.10462402 10.13037109 33.77026367 C7.55126654 41.25317586 2.69156747 44.05103447 -3.875 47.75 C-4.56980469 48.16121094 -5.26460937 48.57242188 -5.98046875 48.99609375 C-10.07074674 51.31468824 -13.18614675 52.90134562 -18 52 C-20.66796875 50.20703125 -20.66796875 50.20703125 -23.1875 47.8125 C-24.02667969 47.03519531 -24.86585938 46.25789063 -25.73046875 45.45703125 C-29.22583595 41.67289016 -30.97825285 39.34832303 -31.0625 34.125 C-29.48982821 24.0294617 -25.10438595 12.51740543 -17 6 C-11.47266036 2.26944861 -6.85009394 -0.68500939 0 0 Z " fill="#FCFCFC" transform="translate(234,175)"/>
<path d="M0 0 C0.495 1.485 0.495 1.485 1 3 C-0.34738031 5.3021465 -1.9383257 7.33305976 -3.5546875 9.453125 C-5.83349807 13.46875876 -6.43748523 16.88147247 -5.49462891 21.44726562 C-4.71120809 24.21084484 -3.81744063 26.91168302 -2.875 29.625 C-2.57851563 30.553125 -2.28203125 31.48125 -1.9765625 32.4375 C-0.12379302 37.91730126 1.65749794 41.19843246 6 45 C6 45.66 6 46.32 6 47 C5.38253906 46.93039063 4.76507813 46.86078125 4.12890625 46.7890625 C-3.36438308 46.31003944 -7.2703168 48.34396801 -13 53 C-13.66386719 53.50273437 -14.32773437 54.00546875 -15.01171875 54.5234375 C-18.87414975 57.58423188 -21.11237674 60.33646018 -23 65 C-23.33 65 -23.66 65 -24 65 C-24 63.989375 -24 62.97875 -24 61.9375 C-24.6531028 57.38417763 -27.26393671 55.39811047 -30.75390625 52.6484375 C-31.86572266 51.83246094 -31.86572266 51.83246094 -33 51 C-33.66902344 50.47664063 -34.33804688 49.95328125 -35.02734375 49.4140625 C-38.42426313 46.97904306 -40.44412357 46.0282649 -44.6875 45.8125 C-50.79932424 47.03731448 -56.464014 50.24044601 -62 53 C-62.33 52.34 -62.66 51.68 -63 51 C-62.48091064 50.77038574 -61.96182129 50.54077148 -61.42700195 50.30419922 C-50.46531658 45.7417658 -50.46531658 45.7417658 -42.7265625 37.32421875 C-41.54740688 33.88322826 -40.66431786 30.57245059 -40 27 C-39.67 26.01 -39.34 25.02 -39 24 C-38.4270226 18.21513205 -38.88352473 14.06427231 -42 9 C-38.75728494 9.5590888 -37.06942576 10.4132178 -35 13 C-35 13.66 -35 14.32 -35 15 C-31.10134759 14.80863035 -27.20761242 14.56531316 -23.3125 14.3125 C-21.65831055 14.23225586 -21.65831055 14.23225586 -19.97070312 14.15039062 C-13.46159017 13.7471427 -13.46159017 13.7471427 -7.8671875 10.65234375 C-5.67951237 7.54522671 -5.67951237 7.54522671 -3.8125 4.25 C-2 1 -2 1 0 0 Z " fill="#030303" transform="translate(285,175)"/>
<path d="M0 0 C6.67391009 0.64193497 11.83170613 4.56018453 16.18359375 9.45703125 C22.80841766 18.21081558 30.40554162 30.52141012 29 42 C27.11318929 46.92126918 24.47356769 51.03020835 21 55 C16.6359039 54.38935223 13.35349156 52.78981373 9.5 50.6875 C8.3965625 50.09324219 7.293125 49.49898437 6.15625 48.88671875 C0.51070683 45.51196955 -2.39534971 43.16959096 -4.625 36.875 C-5.03234375 35.72515625 -5.4396875 34.5753125 -5.859375 33.390625 C-6.42398437 31.71226562 -6.42398437 31.71226562 -7 30 C-7.50273437 28.60007813 -7.50273437 28.60007813 -8.015625 27.171875 C-9.73483325 22.07676691 -10.66623366 18.2764066 -9 13 C-6.41873658 8.37818669 -3.75863575 3.75863575 0 0 Z " fill="#FBFBFB" transform="translate(288,174)"/>
<path d="M0 0 C0.4640625 0.31710937 0.928125 0.63421875 1.40625 0.9609375 C6.42484656 4.35036279 11.50633915 7.63924209 16.625 10.875 C17.64122437 11.51912842 17.64122437 11.51912842 18.67797852 12.17626953 C22.16089893 14.34967716 25.65650645 16.37941326 29.33203125 18.2109375 C30.02151855 18.55656738 30.71100586 18.90219727 31.42138672 19.25830078 C32.73491675 19.90440867 34.05802979 20.53149502 35.39111328 21.13623047 C38.61007506 22.71545961 39.84227946 23.55583112 41.0625 26.9921875 C40.9943481 30.27199746 40.6071763 31.38149232 38.5625 33.875 C38.08941406 34.47054687 37.61632812 35.06609375 37.12890625 35.6796875 C36.75636719 36.11539063 36.38382812 36.55109375 36 37 C31.30943359 36.4136792 26.91031269 34.64951093 23 32 C22.505 30.515 22.505 30.515 22 29 C22.66 28.67 23.32 28.34 24 28 C24 27.34 24 26.68 24 26 C25.2065625 26.433125 25.2065625 26.433125 26.4375 26.875 C30.58131067 28.18357179 34.74978663 29.11217765 39 30 C38.01 27.525 38.01 27.525 37 25 C36.67 25 36.34 25 36 25 C36.495 26.485 36.495 26.485 37 28 C34.03728822 27.58659836 31.40106795 27.1713171 28.640625 25.9921875 C24.13834615 24.30050284 19.7248401 24.21008865 15 25 C11.95526414 27.8105254 11.32527146 29.89590956 10.16796875 33.82421875 C7.9376309 41.38838585 5.55104034 45.48423433 -1 50 C-11.20441803 44.78923335 -20.33855807 38.4909768 -29 31 C-25.60381785 28.73587856 -23.44865048 28.47082615 -19.4375 27.9375 C-15.07188045 27.45048905 -15.07188045 27.45048905 -11 26 C-9.45976004 25.93049459 -7.91665012 25.91547643 -6.375 25.9375 C-5.14910156 25.95103516 -5.14910156 25.95103516 -3.8984375 25.96484375 C-3.27195312 25.97644531 -2.64546875 25.98804688 -2 26 C-1.97494385 25.39003174 -1.9498877 24.78006348 -1.92407227 24.15161133 C-1.8075942 21.37172102 -1.68510368 18.5921266 -1.5625 15.8125 C-1.52318359 14.85279297 -1.48386719 13.89308594 -1.44335938 12.90429688 C-1.40146484 11.97294922 -1.35957031 11.04160156 -1.31640625 10.08203125 C-1.27974854 9.22843018 -1.24309082 8.3748291 -1.20532227 7.49536133 C-0.99468906 4.93545406 -0.55158464 2.50666757 0 0 Z " fill="#064EAE" transform="translate(124,305)"/>
<path d="M0 0 C1.77965702 3.08473884 2.28436571 5.43932952 2.4140625 8.984375 C2.47207031 10.38623047 2.47207031 10.38623047 2.53125 11.81640625 C2.5621875 12.78449219 2.593125 13.75257813 2.625 14.75 C2.68300781 16.22533203 2.68300781 16.22533203 2.7421875 17.73046875 C2.83628426 20.15346037 2.92192328 22.57644796 3 25 C3.71655762 25.11593506 4.43311523 25.23187012 5.17138672 25.35131836 C8.40648264 25.87667357 11.64074021 26.40702266 14.875 26.9375 C16.00292969 27.11990234 17.13085938 27.30230469 18.29296875 27.49023438 C19.36933594 27.66748047 20.44570313 27.84472656 21.5546875 28.02734375 C22.54968262 28.18968506 23.54467773 28.35202637 24.56982422 28.51928711 C27 29 27 29 29 30 C29 30.66 29 31.32 29 32 C27.14102197 33.63687428 25.2867066 35.13770284 23.3125 36.625 C22.73540283 37.06505371 22.15830566 37.50510742 21.5637207 37.95849609 C15.63291953 42.40519385 9.39240968 46.25452919 3 50 C-4.09405395 45.64683053 -7.04013664 41.71257536 -9.5625 33.8125 C-11.05197074 28.51250753 -11.05197074 28.51250753 -15 25 C-21.42246855 24.22365765 -26.36380828 24.70076582 -32 28 C-33.32 28 -34.64 28 -36 28 C-35.67 27.01 -35.34 26.02 -35 25 C-35.66 25.33 -36.32 25.66 -37 26 C-37.65213292 28.02463255 -37.65213292 28.02463255 -38 30 C-34.16815846 29.61681585 -31.31487111 29.16373298 -27.875 27.375 C-24.63536669 25.82561016 -23.35077848 25.91592461 -20 27 C-20.62422628 29.80901824 -21.32357845 31.53790528 -23.73828125 33.1875 C-27.40647377 35.0664988 -30.87502432 36.48437804 -35 37 C-39.74576271 31.11864407 -39.74576271 31.11864407 -40.625 27.25 C-40 25 -40 25 -37.77954102 23.53564453 C-36.40366821 22.77550049 -36.40366821 22.77550049 -35 22 C-33.76817993 21.31139893 -33.76817993 21.31139893 -32.51147461 20.60888672 C-31.65046143 20.13725098 -30.78944824 19.66561523 -29.90234375 19.1796875 C-19.41397234 13.38230282 -9.23415861 7.68520297 0 0 Z " fill="#054DAE" transform="translate(375,305)"/>
<path d="M0 0 C7.57086617 1.61853798 14.34346971 3.49201616 20.03125 8.90234375 C21.46875 11.46484375 21.46875 11.46484375 21.26953125 13.76953125 C20.32015771 16.96498365 18.90267204 19.35500228 17.09375 22.15234375 C16.18496094 23.58126953 16.18496094 23.58126953 15.2578125 25.0390625 C13.46875 27.46484375 13.46875 27.46484375 10.46875 29.46484375 C6.15966937 30.11365419 1.81769619 30.23620788 -2.53125 30.46484375 C-3.53929687 30.57699219 -4.54734375 30.68914062 -5.5859375 30.8046875 C-12.37732357 31.34084956 -12.37732357 31.34084956 -15.55859375 28.92578125 C-17.3796945 26.86160141 -18.94187566 24.71052689 -20.53125 22.46484375 C-21.66993608 21.27048857 -22.81538562 20.08253055 -23.96875 18.90234375 C-26.10463587 16.36346055 -26.55189171 15.36851576 -27.28125 11.96484375 C-24.34932273 -1.71748351 -11.53420023 -1.74799273 0 0 Z " fill="#FAFAFA" transform="translate(263.53125,159.53515625)"/>
<path d="M0 0 C0.1875 3.125 0.1875 3.125 0 6 C-1.32 4.68 -2.64 3.36 -4 2 C-4.99 2.33 -5.98 2.66 -7 3 C-7.33 5.31 -7.66 7.62 -8 10 C-7.01 10 -6.02 10 -5 10 C-4.34 8.68 -3.68 7.36 -3 6 C-2.505 9.96 -2.505 9.96 -2 14 C-3.65 13.34 -5.3 12.68 -7 12 C-6.505 15.96 -6.505 15.96 -6 20 C-4.35 19.67 -2.7 19.34 -1 19 C-0.34 17.02 0.32 15.04 1 13 C2.4606285 15.64738916 3 16.89448334 3 20 C-2.26687719 21.75562573 -6.44395895 22.09260068 -12 22 C-12.50333542 19.39643759 -13.00279378 16.79223349 -13.5 14.1875 C-13.64308594 13.44951172 -13.78617187 12.71152344 -13.93359375 11.95117188 C-14.50926281 8.92205609 -15 6.090804 -15 3 C-16.32 3 -17.64 3 -19 3 C-18.89300781 4.18078125 -18.78601563 5.3615625 -18.67578125 6.578125 C-18.55382991 8.13534974 -18.43278347 9.69264554 -18.3125 11.25 C-18.23966797 12.02730469 -18.16683594 12.80460937 -18.09179688 13.60546875 C-17.67586288 19.33067789 -17.67586288 19.33067789 -19.203125 22.484375 C-22.39812404 25.17928724 -25.93394227 25.30881451 -30 25 C-32.84247566 23.15239082 -33.74675959 21.98109696 -34.58984375 18.71484375 C-35.02613725 15.82699628 -35.09766817 13.10645778 -35.0625 10.1875 C-35.05347656 9.21167969 -35.04445313 8.23585938 -35.03515625 7.23046875 C-35.02355469 6.49441406 -35.01195312 5.75835937 -35 5 C-36.32 5 -37.64 5 -39 5 C-39 7.31 -39 9.62 -39 12 C-39.66 11.67 -40.32 11.34 -41 11 C-41.625 8.9375 -41.625 8.9375 -42 7 C-44.31 6.67 -46.62 6.34 -49 6 C-50.81643761 9.11389304 -51.2719038 11.40777709 -51.25 15 C-51.25515625 15.845625 -51.2603125 16.69125 -51.265625 17.5625 C-50.98076211 20.17653589 -50.40066593 21.78636013 -49 24 C-46.9664052 25.26804566 -46.9664052 25.26804566 -45 26 C-49.33955391 26.43395539 -51.54849386 26.25919797 -55.375 24.0625 C-58.41311757 21.18772208 -59.04623893 18.31566312 -59.23046875 14.21484375 C-58.85108766 10.56892721 -57.46024465 8.64949424 -55 6 C-53.02 5.01 -51.04 4.02 -49 3 C-55.6 2.67 -62.2 2.34 -69 2 C-69 1.67 -69 1.34 -69 1 C-67.35523682 0.97812622 -67.35523682 0.97812622 -65.67724609 0.95581055 C-38.12590887 0.67667836 -38.12590887 0.67667836 -10.796875 -2.4765625 C-5.90843166 -3.1504837 -4.08757612 -2.72505075 0 0 Z " fill="#F0F4F9" transform="translate(307,401)"/>
<path d="M0 0 C2.38671875 1.50390625 2.38671875 1.50390625 4.6875 3.5625 C8.26693184 6.6383204 11.80597866 9.17215369 15.875 11.5625 C20.70517054 14.58904251 23.04639399 16.60432626 25 22 C25.42381939 25.06259964 25.68527769 27.96872661 25 31 C20.45054674 34.03296884 16.32684379 33.75016276 11 33 C2.13035713 29.86878602 -9.05265619 21.90405006 -14.36328125 13.9609375 C-15.12206379 11.62407348 -15.19712384 9.7022107 -15.125 7.25 C-15.10695312 6.45078125 -15.08890625 5.6515625 -15.0703125 4.828125 C-15.04710937 4.22484375 -15.02390625 3.6215625 -15 3 C-13.6293189 2.48827906 -12.25315925 1.99122508 -10.875 1.5 C-9.72644531 1.08234375 -9.72644531 1.08234375 -8.5546875 0.65625 C-5.50786374 -0.12642032 -3.13582519 -0.33202855 0 0 Z " fill="#F9F9F9" transform="translate(213,257)"/>
<path d="M0 0 C2.475 0.495 2.475 0.495 5 1 C6.18158935 6.50481627 5.8137714 9.45426606 3.375 14.5 C1.03679263 19.45823132 -0.70216729 24.26243825 -2.1875 29.5625 C-4.86236267 38.01223173 -9.92855243 43.69462626 -16 50 C-16.99 49.67 -17.98 49.34 -19 49 C-20.24108342 31.10081909 -14.01641358 16.27305645 -2.5 2.6875 C-1.675 1.800625 -0.85 0.91375 0 0 Z " fill="#FBFBFB" transform="translate(203,179)"/>
<path d="M0 0 C0.74507813 0.00451172 1.49015625 0.00902344 2.2578125 0.01367188 C4.0885764 0.02540754 5.91929873 0.0433415 7.75 0.0625 C7.75 1.0525 7.75 2.0425 7.75 3.0625 C9.07 3.0625 10.39 3.0625 11.75 3.0625 C11.75 5.3725 11.75 7.6825 11.75 10.0625 C10.76 10.0625 9.77 10.0625 8.75 10.0625 C8.75 11.0525 8.75 12.0425 8.75 13.0625 C9.74 13.0625 10.73 13.0625 11.75 13.0625 C11.75 15.3725 11.75 17.6825 11.75 20.0625 C10.76 20.0625 9.77 20.0625 8.75 20.0625 C8.75 21.0525 8.75 22.0425 8.75 23.0625 C4.23184719 23.94527755 -0.02512694 24.16839503 -4.625 24.125 C-7.904375 24.0940625 -7.904375 24.0940625 -11.25 24.0625 C-11.58 16.4725 -11.91 8.8825 -12.25 1.0625 C-8.06269376 0.01567344 -4.27143069 -0.04905353 0 0 Z " fill="#E8D033" transform="translate(264.25,371.9375)"/>
<path d="M0 0 C2.0836309 0.14151828 4.16689938 0.28837936 6.25 0.4375 C7.99023438 0.55931641 7.99023438 0.55931641 9.765625 0.68359375 C12.30977376 0.93247787 14.55953248 1.28114942 17 2 C17 3.32 17 4.64 17 6 C17.99 6 18.98 6 20 6 C19.69075786 8.10464793 19.3774944 10.2087053 19.0625 12.3125 C18.80146484 14.07013672 18.80146484 14.07013672 18.53515625 15.86328125 C18 19 18 19 17 22 C16.01 22 15.02 22 14 22 C14 22.99 14 23.98 14 25 C8.30948637 24.4618629 2.65134116 23.8599867 -3 23 C-3 21.68 -3 20.36 -3 19 C-3.66 19 -4.32 19 -5 19 C-5.22084624 12.90218999 -5.01167675 7.78357065 -3 2 C-2.01 2 -1.02 2 0 2 C0 1.34 0 0.68 0 0 Z " fill="#F1D630" transform="translate(200,368)"/>
<path d="M0 0 C2.18347299 0.46541148 4.36269113 0.9436557 6.5390625 1.44140625 C8.04973762 1.78430552 9.56487141 2.1089546 11.0859375 2.40234375 C14.15360566 3.08189049 15.69318167 3.55255661 17.5 6.1875 C18.64702978 12.63954249 16.37460631 18.11510611 14 24 C12.68 24 11.36 24 10 24 C10 24.99 10 25.98 10 27 C4.60204011 25.84941444 -0.70987333 24.57578241 -6 23 C-5.67 21.68 -5.34 20.36 -5 19 C-5.99 18.67 -6.98 18.34 -8 18 C-6.07289294 7.44191344 -6.07289294 7.44191344 -4 3 C-2.68 3 -1.36 3 0 3 C0 2.01 0 1.02 0 0 Z " fill="#EFD531" transform="translate(174,360)"/>
<path d="M0 0 C1.67542976 0.28604898 3.34385343 0.61781233 5 1 C3.53007823 10.55449149 -3.90417151 17.91468856 -11 24 C-18.22259988 29.24171805 -25.74999395 34.67682971 -35 34 C-35 27.79961824 -31.39557851 24.54125559 -27.265625 20.16015625 C-19.89068148 13.18345968 -11.13829616 7.78970668 -2.71484375 2.17993164 C-1.0511383 1.11170801 -1.0511383 1.11170801 0 0 Z " fill="#F9F9F9" transform="translate(306,256)"/>
<path d="M0 0 C0.66 0 1.32 0 2 0 C2.50512244 1.60256108 3.00391627 3.20711792 3.5 4.8125 C3.7784375 5.70582031 4.056875 6.59914063 4.34375 7.51953125 C5 10 5 10 5 13 C9.95 13 14.9 13 20 13 C16.72724974 16.27275026 13.85411644 18.54738045 10 21 C10.144375 22.010625 10.28875 23.02125 10.4375 24.0625 C10.95833333 27.70833333 11.47916667 31.35416667 12 35 C11.39671875 34.566875 10.7934375 34.13375 10.171875 33.6875 C9.37265625 33.130625 8.5734375 32.57375 7.75 32 C6.96109375 31.443125 6.1721875 30.88625 5.359375 30.3125 C2.86738917 28.67591051 2.86738917 28.67591051 -1 29 C-3.1976539 30.28640246 -3.1976539 30.28640246 -5.25 32 C-5.95640625 32.556875 -6.6628125 33.11375 -7.390625 33.6875 C-7.92171875 34.120625 -8.4528125 34.55375 -9 35 C-9.66 34.67 -10.32 34.34 -11 34 C-10.77183594 33.40832031 -10.54367188 32.81664062 -10.30859375 32.20703125 C-10.02113281 31.41683594 -9.73367187 30.62664063 -9.4375 29.8125 C-9.14746094 29.03519531 -8.85742188 28.25789063 -8.55859375 27.45703125 C-7.88677646 24.50197476 -7.96166925 22.85077417 -9 20 C-11.04503714 18.15149391 -11.04503714 18.15149391 -13.5625 16.75 C-15.05119346 15.84888758 -16.53322436 14.93636586 -18 14 C-18 13.67 -18 13.34 -18 13 C-13.05 13 -8.1 13 -3 13 C-2.690625 11.411875 -2.38125 9.82375 -2.0625 8.1875 C-1.51076205 5.35524518 -0.91407022 2.74221066 0 0 Z " fill="#0E54B1" transform="translate(249,15)"/>
<path d="M0 0 C0.99 0.33 1.98 0.66 3 1 C-1.07460321 4.49251704 -5.38551577 7.05287301 -10.0625 9.625 C-10.76955078 10.01945312 -11.47660156 10.41390625 -12.20507812 10.8203125 C-15.43886568 12.61787328 -18.68254571 14.36074417 -22 16 C-21.71110084 20.78655805 -21.71110084 20.78655805 -19.4375 24.8125 C-18.963125 25.204375 -18.48875 25.59625 -18 26 C-18 26.66 -18 27.32 -18 28 C-16.22545177 27.23775772 -14.455478 26.46485997 -12.6875 25.6875 C-11.70136719 25.25824219 -10.71523438 24.82898438 -9.69921875 24.38671875 C-7.25859829 23.13285441 -5.76852614 22.05825056 -4 20 C-5.65 20 -7.3 20 -9 20 C-9 19.67 -9 19.34 -9 19 C-6.69 19 -4.38 19 -2 19 C-2.140625 21.2890625 -2.140625 21.2890625 -3 24 C-15.81151808 33.38133744 -34.69503616 37.67283395 -50 41 C-48.60040281 36.32905515 -45.95776512 33.73740672 -42.375 30.625 C-41.83738037 30.14458252 -41.29976074 29.66416504 -40.74584961 29.16918945 C-37.09169915 25.91395179 -33.37218372 22.734428 -29.65234375 19.5546875 C-27.74342223 17.84922871 -27.74342223 17.84922871 -25.625 14.8125 C-22.54282834 11.51017322 -20.08416129 10.680052 -15.90234375 9.21484375 C-11.17041654 7.23418512 -7.04886203 4.34233152 -2.78515625 1.51171875 C-1.86605469 1.01285156 -0.94695312 0.51398438 0 0 Z " fill="#F1F4F7" transform="translate(358,314)"/>
<path d="M0 0 C0 0.66 0 1.32 0 2 C1.32 2 2.64 2 4 2 C4 2.99 4 3.98 4 5 C5.32 5 6.64 5 8 5 C8.33895656 6.72807318 8.67091525 8.45751974 9 10.1875 C9.185625 11.15042969 9.37125 12.11335938 9.5625 13.10546875 C9.97069173 15.80609442 10.15486792 18.27529246 10 21 C9 22 9 22 6.4375 22.0625 C5.633125 22.041875 4.82875 22.02125 4 22 C3.67 20.02 3.34 18.04 3 16 C-1.95 16.495 -1.95 16.495 -7 17 C-6.67 19.31 -6.34 21.62 -6 24 C-8.31 24.33 -10.62 24.66 -13 25 C-13.33895656 23.27192682 -13.67091525 21.54248026 -14 19.8125 C-14.185625 18.84957031 -14.37125 17.88664062 -14.5625 16.89453125 C-14.96877612 14.2065794 -15.07933572 11.71228981 -15 9 C-14.34 8.67 -13.68 8.34 -13 8 C-12.34786708 5.97536745 -12.34786708 5.97536745 -12 4 C-11.34 4 -10.68 4 -10 4 C-10 3.01 -10 2.02 -10 1 C-6.52674819 -0.1577506 -3.63932552 -0.06866652 0 0 Z " fill="#F2D72F" transform="translate(296,369)"/>
<path d="M0 0 C4.79046742 0.50377764 8.97339234 2.60427894 13.3125 4.5625 C14.42334961 5.0565332 14.42334961 5.0565332 15.55664062 5.56054688 C17.37311562 6.36917123 19.18683931 7.18397116 21 8 C21 8.99 21 9.98 21 11 C15.23955788 10.39363767 10.27985631 8.24341721 5 6 C4.67 7.65 4.34 9.3 4 11 C7.3 12.65 10.6 14.3 14 16 C14 16.99 14 17.98 14 19 C9.39146203 18.27991594 5.32762591 16.68704061 1 15 C0.01 17.64 -0.98 20.28 -2 23 C-6.75 22.125 -6.75 22.125 -9 21 C-7.55353261 16.45096486 -5.82973348 12.06587966 -3.9375 7.6875 C-3.66873047 7.05521484 -3.39996094 6.42292969 -3.12304688 5.77148438 C-1.12676222 1.12676222 -1.12676222 1.12676222 0 0 Z " fill="#F0D530" transform="translate(146,349)"/>
<path d="M0 0 C3.76080018 3.13400015 7.34123568 6.29809216 10.75 9.8125 C14.80805348 13.95027948 19.23252063 17.52884022 23.77734375 21.1171875 C26 23 26 23 27 25 C18.21045322 24.40409852 7.67042965 23.24829204 1.1875 16.75 C0.465625 15.8425 -0.25625 14.935 -1 14 C-0.67 13.29875 -0.34 12.5975 0 11.875 C1.48414354 7.60808731 1.42275398 4.26826195 0 0 Z " fill="#0A0A0A" transform="translate(165,327)"/>
<path d="M0 0 C4.97144319 1.05129866 9.16181386 3.52350044 13.625 5.875 C14.93210938 6.54595703 14.93210938 6.54595703 16.265625 7.23046875 C17.09835938 7.66746094 17.93109375 8.10445313 18.7890625 8.5546875 C19.54912598 8.95155762 20.30918945 9.34842773 21.09228516 9.75732422 C23 11 23 11 25 14 C25.36703674 18.2209225 24.79885972 21.17742309 23 25 C27.06186848 29.8579947 30.6821933 31.17200076 36.75 32.625 C39.56679976 33.31406837 42.24046306 34.08212827 45 35 C45.33 35.99 45.66 36.98 46 38 C36.72582621 36.00611822 27.82337405 33.39773943 18.9375 30.0625 C18.05811768 29.73894531 17.17873535 29.41539062 16.27270508 29.08203125 C10.87531684 27.00488423 6.5622289 24.55940518 2 21 C2.33 19.35 2.66 17.7 3 16 C4.98 16.33 6.96 16.66 9 17 C9 17.33 9 17.66 9 18 C7.35 18 5.7 18 4 18 C7.6438956 22.63768531 12.63094897 24.07369925 18 26 C18.433125 25.1028125 18.433125 25.1028125 18.875 24.1875 C20 22 20 22 22 19 C22.16699232 15.87478167 22.16699232 15.87478167 22 13 C21.18273437 12.76539063 20.36546875 12.53078125 19.5234375 12.2890625 C15.26928005 10.73266343 11.53626604 8.63830042 7.625 6.375 C6.88894531 5.95476562 6.15289062 5.53453125 5.39453125 5.1015625 C3.5936235 4.07247236 1.79642682 3.03689244 0 2 C0 1.34 0 0.68 0 0 Z " fill="#E3E9F0" transform="translate(142,316)"/>
<path d="M0 0 C0.33 0 0.66 0 1 0 C1.45572917 1.98567708 1.91145833 3.97135417 2.3671875 5.95703125 C2.98007723 8.27742974 2.98007723 8.27742974 5 11 C0.8280093 16.02009559 -3.38796194 17.55978927 -9.5625 19.375 C-10.41263672 19.64699219 -11.26277344 19.91898437 -12.13867188 20.19921875 C-19.01684018 22.30312906 -19.01684018 22.30312906 -23 21 C-9.68406554 8.63810352 -9.68406554 8.63810352 -3.48828125 3.3046875 C-2.28385674 2.24884029 -1.13257488 1.13257488 0 0 Z " fill="#070707" transform="translate(332,330)"/>
<path d="M0 0 C0.33 2.97 0.66 5.94 1 9 C1.99 9 2.98 9 4 9 C4.66 7.68 5.32 6.36 6 5 C6.33 7.64 6.66 10.28 7 13 C5.35 12.34 3.7 11.68 2 11 C2.33 13.64 2.66 16.28 3 19 C4.65 18.67 6.3 18.34 8 18 C8.66 16.02 9.32 14.04 10 12 C11.4606285 14.64738916 12 15.89448334 12 19 C6.73312281 20.75562573 2.55604105 21.09260068 -3 21 C-3.50333542 18.39643759 -4.00279378 15.79223349 -4.5 13.1875 C-4.64308594 12.44951172 -4.78617187 11.71152344 -4.93359375 10.95117188 C-5.50926281 7.92205609 -6 5.090804 -6 2 C-7.32 2 -8.64 2 -10 2 C-9.90460938 3.20398438 -9.80921875 4.40796875 -9.7109375 5.6484375 C-9.59840312 7.22391877 -9.48645427 8.79944195 -9.375 10.375 C-9.31054688 11.1690625 -9.24609375 11.963125 -9.1796875 12.78125 C-9.03941413 14.85028224 -9.01241763 16.92625536 -9 19 C-9.66 19.66 -10.32 20.32 -11 21 C-11.33 15.06 -11.66 9.12 -12 3 C-12.66 3 -13.32 3 -14 3 C-14 2.34 -14 1.68 -14 1 C-9.27685687 0.22887459 -4.78478822 -0.09764874 0 0 Z " fill="#0D3872" transform="translate(298,402)"/>
<path d="M0 0 C0.66 0 1.32 0 2 0 C2.33 0.969375 2.66 1.93875 3 2.9375 C4.60746443 6.10721418 4.60746443 6.10721418 6.98046875 6.62109375 C8.97777644 6.85087251 10.99059814 6.93411797 13 7 C11.79618552 9.49361571 10.54571278 11.68143083 9 14 C10.30096474 17.67480584 10.30096474 17.67480584 12 21 C11.0925 20.67 10.185 20.34 9.25 20 C5.92954193 18.80394277 5.92954193 18.80394277 2 19 C-0.75041666 21.41666771 -0.75041666 21.41666771 -3 24 C-2.67 20.7 -2.34 17.4 -2 14 C-2.94875 13.71125 -3.8975 13.4225 -4.875 13.125 C-8 12 -8 12 -10 10 C-5.545 9.505 -5.545 9.505 -1 9 C-0.67 6.03 -0.34 3.06 0 0 Z " fill="#1357B3" transform="translate(113,70)"/>
<path d="M0 0 C0.66 0 1.32 0 2 0 C2.33 2.64 2.66 5.28 3 8 C5.64 8.66 8.28 9.32 11 10 C8.59660228 12.76390737 7.83736322 13.04065919 4 14 C4.33 17.3 4.66 20.6 5 24 C4.113125 23.154375 3.22625 22.30875 2.3125 21.4375 C-0.25798684 19.23675355 -0.25798684 19.23675355 -3.625 19.125 C-4.40875 19.41375 -5.1925 19.7025 -6 20 C-6.763125 20.185625 -7.52625 20.37125 -8.3125 20.5625 C-8.869375 20.706875 -9.42625 20.85125 -10 21 C-9.5359375 19.88625 -9.5359375 19.88625 -9.0625 18.75 C-8.711875 17.8425 -8.36125 16.935 -8 16 C-7.690625 15.360625 -7.38125 14.72125 -7.0625 14.0625 C-6.95371108 10.47246568 -9.63728622 8.53559528 -12 6 C-9.03 6 -6.06 6 -3 6 C-2.01 4.02 -1.02 2.04 0 0 Z " fill="#1357B3" transform="translate(384,70)"/>
<path d="M0 0 C0.763125 0.804375 1.52625 1.60875 2.3125 2.4375 C4.79430898 5.16799024 4.79430898 5.16799024 8 6 C10.35188447 5.40206327 12.68925595 4.74118205 15 4 C13.68 6.64 12.36 9.28 11 12 C12.65 14.31 14.3 16.62 16 19 C12.7 18.34 9.4 17.68 6 17 C5.71125 17.78375 5.4225 18.5675 5.125 19.375 C4 22 4 22 2 24 C1.67 21.03 1.34 18.06 1 15 C-1.97 14.67 -4.94 14.34 -8 14 C-7.67 13.34 -7.34 12.68 -7 12 C-4.6859378 11.26924352 -2.35171131 10.59861742 0 10 C0 6.7 0 3.4 0 0 Z " fill="#1256B2" transform="translate(179,54)"/>
<path d="M0 0 C5.28 0.33 10.56 0.66 16 1 C16 3.31 16 5.62 16 8 C14 7 14 7 13.125 5 C12.75375 4.34 12.3825 3.68 12 3 C10.68 2.67 9.36 2.34 8 2 C7.67 4.97 7.34 7.94 7 11 C8.65 10.01 10.3 9.02 12 8 C12 10.64 12 13.28 12 16 C11.34 16 10.68 16 10 16 C9.67 15.01 9.34 14.02 9 13 C8.34 12.67 7.68 12.34 7 12 C6.67 14.97 6.34 17.94 6 21 C10.48684201 20.66132538 10.48684201 20.66132538 13.875 17.9375 C14.24625 17.298125 14.6175 16.65875 15 16 C15 18.31 15 20.62 15 23 C12.72858891 22.88597936 10.45785448 22.75841495 8.1875 22.625 C6.92292969 22.55539062 5.65835938 22.48578125 4.35546875 22.4140625 C1 22 1 22 -2 20 C-1.34 20 -0.68 20 0 20 C0 13.4 0 6.8 0 0 Z " fill="#103B73" transform="translate(209,403)"/>
<path d="M0 0 C1.17112946 2.62309099 2.33705964 5.24828142 3.5 7.875 C3.83386719 8.62136719 4.16773438 9.36773437 4.51171875 10.13671875 C4.98544922 11.20986328 4.98544922 11.20986328 5.46875 12.3046875 C5.76201172 12.96452637 6.05527344 13.62436523 6.35742188 14.30419922 C7 16 7 16 7 18 C7.75925781 17.62746094 8.51851563 17.25492187 9.30078125 16.87109375 C10.29464844 16.39800781 11.28851563 15.92492187 12.3125 15.4375 C13.29863281 14.96183594 14.28476562 14.48617188 15.30078125 13.99609375 C18 13 18 13 21 14 C20 17 20 17 16.98046875 18.60546875 C15.720927 19.14413233 14.4563114 19.67104913 13.1875 20.1875 C12.55779297 20.46013672 11.92808594 20.73277344 11.27929688 21.01367188 C7.907032 22.42556451 5.71644844 23 2 23 C0.65757579 20.06657102 -0.67234067 17.12763748 -2 14.1875 C-2.3815625 13.35412109 -2.763125 12.52074219 -3.15625 11.66210938 C-3.5171875 10.85966797 -3.878125 10.05722656 -4.25 9.23046875 C-4.58515625 8.49207764 -4.9203125 7.75368652 -5.265625 6.99291992 C-6 5 -6 5 -6 2 C-2.25 0 -2.25 0 0 0 Z " fill="#F1D630" transform="translate(342,355)"/>
<path d="M0 0 C6.6 0 13.2 0 20 0 C20 1.32 20 2.64 20 4 C17.69 4 15.38 4 13 4 C13.01160156 4.61746094 13.02320313 5.23492187 13.03515625 5.87109375 C13.09699663 11.67525544 12.74278956 17.24338088 12 23 C10.02 23 8.04 23 6 23 C6 16.4 6 9.8 6 3 C4.02 3 2.04 3 0 3 C0 2.01 0 1.02 0 0 Z " fill="#F0D530" transform="translate(228,372)"/>
<path d="M0 0 C0.83887056 2.43572059 1.67126529 4.87333217 2.5 7.3125 C2.73847656 8.00279297 2.97695313 8.69308594 3.22265625 9.40429688 C4.23208263 12.38931489 5 14.82658914 5 18 C5.59167969 17.84402344 6.18335938 17.68804687 6.79296875 17.52734375 C14.64147627 15.5940246 14.64147627 15.5940246 19 17 C19 17.66 19 18.32 19 19 C9.595 21.475 9.595 21.475 0 24 C-3.61363636 13.15909091 -3.61363636 13.15909091 -4.6875 9.6875 C-4.93886719 8.88699219 -5.19023437 8.08648437 -5.44921875 7.26171875 C-6 5 -6 5 -6 1 C-4 0 -4 0 0 0 Z " fill="#F1D630" transform="translate(316,364)"/>
<path d="M0 0 C0.33 0 0.66 0 1 0 C1.33 2.97 1.66 5.94 2 9 C4.64 9.66 7.28 10.32 10 11 C7.53721199 13.46278801 5.29323018 13.99771255 2 15 C1.67 17.64 1.34 20.28 1 23 C0.360625 22.13375 -0.27875 21.2675 -0.9375 20.375 C-3.66285308 17.72984639 -3.66285308 17.72984639 -6.3359375 18.11328125 C-8.58494177 18.63473807 -10.79701065 19.3095108 -13 20 C-11.68 17.36 -10.36 14.72 -9 12 C-9.66 11.21625 -10.32 10.4325 -11 9.625 C-13 7 -13 7 -13 5 C-8.545 5.99 -8.545 5.99 -4 7 C-3.71125 6.21625 -3.4225 5.4325 -3.125 4.625 C-2 2 -2 2 0 0 Z " fill="#0A51B0" transform="translate(325,55)"/>
<path d="M0 0 C3.3 0.66 6.6 1.32 10 2 C9.85764543 3.72945653 9.71095618 5.45855654 9.5625 7.1875 C9.48128906 8.15042969 9.40007812 9.11335938 9.31640625 10.10546875 C9.02333849 12.78649602 8.57296246 15.3662986 8 18 C4.7 17.67 1.4 17.34 -2 17 C-1.85786703 15.10388566 -1.71113093 13.20811606 -1.5625 11.3125 C-1.48128906 10.25675781 -1.40007812 9.20101563 -1.31640625 8.11328125 C-1 5 -1 5 0 0 Z " fill="#0047A6" transform="translate(203,371)"/>
<path d="M0 0 C2.97 0.99 5.94 1.98 9 3 C7.68 8.28 6.36 13.56 5 19 C-1.93359375 17.73046875 -1.93359375 17.73046875 -4 17 C-5.30457818 13.08626547 -4.37656943 11.2678125 -3.125 7.375 C-2.75632813 6.20710938 -2.38765625 5.03921875 -2.0078125 3.8359375 C-1 1 -1 1 0 0 Z " fill="#0347A0" transform="translate(177,364)"/>
<path d="M0 0 C1.17949219 0.01804687 2.35898437 0.03609375 3.57421875 0.0546875 C4.92966797 0.08949219 4.92966797 0.08949219 6.3125 0.125 C6.3125 2.765 6.3125 5.405 6.3125 8.125 C5.6525 7.795 4.9925 7.465 4.3125 7.125 C3.6875 5.0625 3.6875 5.0625 3.3125 3.125 C1.0025 2.795 -1.3075 2.465 -3.6875 2.125 C-5.50393761 5.23889304 -5.9594038 7.53277709 -5.9375 11.125 C-5.94265625 11.970625 -5.9478125 12.81625 -5.953125 13.6875 C-5.66826211 16.30153589 -5.08816593 17.91136013 -3.6875 20.125 C-1.6539052 21.39304566 -1.6539052 21.39304566 0.3125 22.125 C-4.02705391 22.55895539 -6.23599386 22.38419797 -10.0625 20.1875 C-13.1006043 17.31273464 -13.72480279 14.44144412 -13.9296875 10.34375 C-13.54389279 6.80937266 -11.99100467 4.74843588 -9.6875 2.125 C-6.05554504 -0.29630331 -4.30400652 -0.08522785 0 0 Z " fill="#133D75" transform="translate(261.6875,404.875)"/>
<path d="M0 0 C1.32 0 2.64 0 4 0 C4.20681396 0.59538574 4.41362793 1.19077148 4.62670898 1.80419922 C5.56224634 4.49495283 6.49984735 7.18498282 7.4375 9.875 C7.76298828 10.81214844 8.08847656 11.74929688 8.42382812 12.71484375 C8.73642578 13.61074219 9.04902344 14.50664062 9.37109375 15.4296875 C9.65911865 16.25710449 9.94714355 17.08452148 10.24389648 17.93701172 C10.96447911 20.02237968 10.96447911 20.02237968 12 22 C8.37 22 4.74 22 1 22 C1.309375 20.515 1.309375 20.515 1.625 19 C2.27862302 14.62162112 1.25457789 11.20652588 0 7 C-0.66 7 -1.32 7 -2 7 C-1.34 4.69 -0.68 2.38 0 0 Z " fill="#1C447A" transform="translate(235,405)"/>
<path d="M0 0 C-0.99 0.495 -0.99 0.495 -2 1 C-1.34 7.27 -0.68 13.54 0 20 C3.465 19.505 3.465 19.505 7 19 C6.67 19.66 6.34 20.32 6 21 C3.01875412 21.85869557 0.09586184 22.13012379 -3 22 C-5.84247566 20.15239082 -6.74675959 18.98109696 -7.58984375 15.71484375 C-8.02613725 12.82699628 -8.09766817 10.10645778 -8.0625 7.1875 C-8.05347656 6.21167969 -8.04445313 5.23585938 -8.03515625 4.23046875 C-8.02355469 3.49441406 -8.01195312 2.75835937 -8 2 C-8.99 1.67 -9.98 1.34 -11 1 C-7.26562152 0.12132271 -3.83225427 -0.08912219 0 0 Z " fill="#1E467B" transform="translate(280,404)"/>
<path d="M0 0 C2.64 0 5.28 0 8 0 C8.33 0.66 8.66 1.32 9 2 C8.01 2 7.02 2 6 2 C5.93941406 2.78503906 5.87882813 3.57007813 5.81640625 4.37890625 C5.37179786 9.95361148 4.87875357 15.47640616 4 21 C1.36 21 -1.28 21 -4 21 C-4 20.34 -4 19.68 -4 19 C-3.34 19 -2.68 19 -2 19 C-2.04125 18.0925 -2.0825 17.185 -2.125 16.25 C-2.14765822 10.75538156 -0.99038182 5.38520114 0 0 Z " fill="#174077" transform="translate(192,401)"/>
<path d="M0 0 C-0.969375 0.4125 -1.93875 0.825 -2.9375 1.25 C-6.12260099 2.64899168 -6.12260099 2.64899168 -6.875 5.1875 C-6.91625 5.785625 -6.9575 6.38375 -7 7 C-3.16815846 6.61681585 -0.31487111 6.16373298 3.125 4.375 C6.36463331 2.82561016 7.64922152 2.91592461 11 4 C10.37577372 6.80901824 9.67642155 8.53790528 7.26171875 10.1875 C3.59352623 12.0664988 0.12497568 13.48437804 -4 14 C-8.74576271 8.11864407 -8.74576271 8.11864407 -9.625 4.25 C-9 2 -9 2 -6.75 0.125 C-3.83945073 -1.06567925 -2.84961767 -1.16095535 0 0 Z " fill="#1458B3" transform="translate(344,328)"/>
<path d="M0 0 C2.61799121 0.85679712 4.70370229 1.54913257 7 3 C8.25 5.75 8.25 5.75 8 9 C6.5859406 11.56073302 4.89819536 13.77996529 3 16 C-1.69056641 15.4136792 -6.08968731 13.64951093 -10 11 C-10.33 10.01 -10.66 9.02 -11 8 C-10.34 7.67 -9.68 7.34 -9 7 C-9 6.34 -9 5.68 -9 5 C-7.7934375 5.433125 -7.7934375 5.433125 -6.5625 5.875 C-2.41868933 7.18357179 1.74978663 8.11217765 6 9 C5.36078035 6.52372901 5.36078035 6.52372901 4 4 C1.47627099 2.63921965 1.47627099 2.63921965 -1 2 C-0.67 1.34 -0.34 0.68 0 0 Z " fill="#1358B3" transform="translate(157,326)"/>
<path d="M0 0 C2.4375 0.6875 2.4375 0.6875 5 2 C5.8125 4.625 5.8125 4.625 6 7 C2.16588606 7.23004684 -0.33147284 7.36465118 -3.75 5.5 C-8.4580278 3.32706409 -12.89505503 3.75474464 -18 4 C-18.27585938 4.85851562 -18.55171875 5.71703125 -18.8359375 6.6015625 C-19.97457764 9.92578037 -21.25849731 13.13854627 -22.625 16.375 C-23.07101563 17.43460937 -23.51703125 18.49421875 -23.9765625 19.5859375 C-24.31429687 20.38257813 -24.65203125 21.17921875 -25 22 C-25.66 21.34 -26.32 20.68 -27 20 C-26.07258588 17.39183538 -25.13365283 14.7888611 -24.1875 12.1875 C-23.92646484 11.44951172 -23.66542969 10.71152344 -23.39648438 9.95117188 C-23.13544922 9.23896484 -22.87441406 8.52675781 -22.60546875 7.79296875 C-22.36981201 7.1383667 -22.13415527 6.48376465 -21.89135742 5.80932617 C-20.86893851 3.73396421 -19.7716321 2.48004806 -18 1 C-10.14010746 -0.47372985 -3.14580011 1.90394734 4 5 C2.68 3.35 1.36 1.7 0 0 Z " fill="#E1E9F5" transform="translate(157,328)"/>
<path d="M0 0 C-0.33 0.66 -0.66 1.32 -1 2 C-9.68011293 3.73602259 -20.90268213 4.91705817 -29 1 C-19.97467994 -3.51266003 -9.6026877 -3.13557149 0 0 Z " fill="#E9E9E9" transform="translate(266,292)"/>
<path d="M0 0 C0.66 0.33 1.32 0.66 2 1 C0.68 2.32 -0.64 3.64 -2 5 C-1.40574219 4.71125 -0.81148438 4.4225 -0.19921875 4.125 C6.18615409 1.26498853 12.00032289 -0.27780858 19 1 C23.66018341 4.10678894 25.81636313 8.61390928 27 14 C26.6875 17 26.6875 17 26 19 C23.61874536 16.61874536 22.99813759 14.66142433 21.875 11.5 C21.34519531 10.03046875 21.34519531 10.03046875 20.8046875 8.53125 C20 6 20 6 20 4 C13.3617025 3.68107823 8.93242699 3.76413073 3 7 C-0.875 7.1875 -0.875 7.1875 -4 7 C-3.6875 4.625 -3.6875 4.625 -3 2 C-2.01 1.34 -1.02 0.68 0 0 Z " fill="#EAF0F8" transform="translate(341,328)"/>
<path d="M0 0 C1.60694121 2.9540366 2.52118086 5.73762905 3.3125 9 C5.74655009 19.22872684 5.74655009 19.22872684 11 28 C11.04063832 29.66617115 11.042721 31.33388095 11 33 C10.34 33 9.68 33 9 33 C7.70407751 30.29363164 6.41316835 27.5850566 5.125 24.875 C4.76019531 24.11445313 4.39539063 23.35390625 4.01953125 22.5703125 C-1.30288481 11.34485317 -1.30288481 11.34485317 -1.1875 5.1875 C-1.18105469 4.41792969 -1.17460937 3.64835938 -1.16796875 2.85546875 C-1 1 -1 1 0 0 Z " fill="#E6E6E6" transform="translate(185,232)"/>
<path d="M0 0 C0.99 0.33 1.98 0.66 3 1 C-1.07460321 4.49251704 -5.38551577 7.05287301 -10.0625 9.625 C-10.76955078 10.01945312 -11.47660156 10.41390625 -12.20507812 10.8203125 C-15.43886568 12.61787328 -18.68254571 14.36074417 -22 16 C-21.67 18.64 -21.34 21.28 -21 24 C-21.99 24 -22.98 24 -24 24 C-25.11445498 21.77109005 -25.16480286 20.46944894 -25.1875 18 C-25.20167969 17.29875 -25.21585937 16.5975 -25.23046875 15.875 C-25 14 -25 14 -23 12 C-21.57852704 11.41757092 -20.13731304 10.88279049 -18.6875 10.375 C-12.85748233 8.15687374 -7.95662883 4.94498482 -2.78515625 1.51171875 C-1.86605469 1.01285156 -0.94695312 0.51398438 0 0 Z " fill="#DEE1E5" transform="translate(358,314)"/>
<path d="M0 0 C0.99 0 1.98 0 3 0 C3 0.66 3 1.32 3 2 C4.32 2 5.64 2 7 2 C7.33 4.31 7.66 6.62 8 9 C4.7 9.33 1.4 9.66 -2 10 C-2.33 7.69 -2.66 5.38 -3 3 C-2.01 3 -1.02 3 0 3 C0 2.01 0 1.02 0 0 Z " fill="#0A4996" transform="translate(290,373)"/>
<path d="M0 0 C1.48117801 0.28127421 2.95993249 0.57533732 4.4375 0.875 C5.67306641 1.11863281 5.67306641 1.11863281 6.93359375 1.3671875 C7.61550781 1.57601562 8.29742187 1.78484375 9 2 C9.33 2.66 9.66 3.32 10 4 C8.06767179 4.86580287 6.12892806 5.71729941 4.1875 6.5625 C3.10855469 7.03816406 2.02960938 7.51382813 0.91796875 8.00390625 C-2 9 -2 9 -5 8 C-5 6.35 -5 4.7 -5 3 C-4.34 3.66 -3.68 4.32 -3 5 C-2.01 3.35 -1.02 1.7 0 0 Z " fill="#ECF0F5" transform="translate(185,71)"/>
<path d="M0 0 C4.29 1.65 8.58 3.3 13 5 C12.67 5.66 12.34 6.32 12 7 C8.62294375 6.46274105 5.303314 5.88935377 2 5 C1.13375 6.2065625 1.13375 6.2065625 0.25 7.4375 C-2 10 -2 10 -4 10.9375 C-6.49911402 11.01559731 -7.8865327 10.28317658 -10 9 C-10 8.34 -10 7.68 -10 7 C-7.69 7.66 -5.38 8.32 -3 9 C-2.814375 7.88625 -2.814375 7.88625 -2.625 6.75 C-2 4 -2 4 0 0 Z " fill="#084796" transform="translate(147,363)"/>
<path d="M0 0 C0.44988281 0.35191406 0.89976562 0.70382812 1.36328125 1.06640625 C6.33566835 4.88288773 11.47836835 8.19713347 16.875 11.38671875 C17.57625 11.91910156 18.2775 12.45148438 19 13 C19 13.99 19 14.98 19 16 C19.66 16.33 20.32 16.66 21 17 C12.39848971 15.42507558 4.98207597 8.8671858 0 2 C0 1.34 0 0.68 0 0 Z " fill="#141414" transform="translate(201,274)"/>
<path d="M0 0 C0.66 0.33 1.32 0.66 2 1 C1.34065816 5.86548808 0.03428754 10.25907636 -1.5625 14.875 C-1.91344727 15.90753906 -1.91344727 15.90753906 -2.27148438 16.9609375 C-2.84352499 18.64203645 -3.42118456 20.32122163 -4 22 C-4.99 22 -5.98 22 -7 22 C-6.44147333 16.5632024 -5.06042383 12.0816633 -2.9375 7.0625 C-2.65583984 6.37865234 -2.37417969 5.69480469 -2.08398438 4.99023438 C-1.3964595 3.32386054 -0.69923825 1.66149273 0 0 Z " fill="#1C1C1C" transform="translate(207,189)"/>
<path d="M0 0 C3.3 0 6.6 0 10 0 C10 1.98 10 3.96 10 6 C6.7 6 3.4 6 0 6 C0 4.02 0 2.04 0 0 Z " fill="#024193" transform="translate(259,376)"/>
<path d="M0 0 C3.3 0 6.6 0 10 0 C9.67 2.64 9.34 5.28 9 8 C7.02 8.33 5.04 8.66 3 9 C2.87625 7.88625 2.7525 6.7725 2.625 5.625 C2.3534187 1.96896323 2.3534187 1.96896323 0 0 Z " fill="#1B437A" transform="translate(259,417)"/>
<path d="M0 0 C2.97 0 5.94 0 9 0 C9 1.98 9 3.96 9 6 C6.03 6 3.06 6 0 6 C0 4.02 0 2.04 0 0 Z " fill="#004199" transform="translate(260,386)"/>
<path d="M0 0 C0.33 0 0.66 0 1 0 C1.375 2.25 1.375 2.25 1 5 C-1.58660177 7.52027865 -3.55789114 8.89373935 -7.2265625 9.1640625 C-12.27193234 8.80970542 -15.33141522 7.66858478 -19 4 C-13.63108121 4.49869404 -8.30764827 5.02227532 -3 6 C-3 5.01 -3 4.02 -3 3 C-2.01 3 -1.02 3 0 3 C0 2.01 0 1.02 0 0 Z " fill="#0F4A90" transform="translate(217,387)"/>
<path d="M0 0 C-0.33 0.99 -0.66 1.98 -1 3 C-2.91772461 3.90722656 -2.91772461 3.90722656 -5.40234375 4.640625 C-6.29244141 4.90617187 -7.18253906 5.17171875 -8.09960938 5.4453125 C-9.03611328 5.71085937 -9.97261719 5.97640625 -10.9375 6.25 C-12.33645508 6.67152344 -12.33645508 6.67152344 -13.76367188 7.1015625 C-20.72803514 9.13598243 -20.72803514 9.13598243 -23 8 C-18.80156017 5.18729277 -14.601862 3.74714147 -9.8125 2.3125 C-9.08869141 2.08755859 -8.36488281 1.86261719 -7.61914062 1.63085938 C-2.29034479 0 -2.29034479 0 0 0 Z " fill="#DAE1E9" transform="translate(331,346)"/>
<path d="M0 0 C2.31 0 4.62 0 7 0 C6.071875 0.86625 6.071875 0.86625 5.125 1.75 C2.40490191 5.91015002 2.07497195 9.57676531 1.4921875 14.453125 C1.24855469 15.71382813 1.24855469 15.71382813 1 17 C0.34 17.33 -0.32 17.66 -1 18 C-0.505 9.09 -0.505 9.09 0 0 Z " fill="#064597" transform="translate(241,376)"/>
<path d="M0 0 C2.3125 0.125 2.3125 0.125 5 1 C6.8125 4.0625 6.8125 4.0625 8 7 C7.2575 6.95875 6.515 6.9175 5.75 6.875 C2.66578189 6.82866033 2.66578189 6.82866033 -1 9 C-0.67 6.03 -0.34 3.06 0 0 Z " fill="#F2F4F7" transform="translate(217,405)"/>
<path d="M0 0 C2.18975773 3.28463659 2.99806563 6.20696275 4 10 C7.78706732 10 11.26513121 9.5745952 15 9 C14.67 9.99 14.34 10.98 14 12 C10.56930562 13.6754554 8.53997124 14.0830725 4.75 13.5 C2 12 2 12 0.625 9.25 C0.01334287 6.06938294 -0.15378444 3.22947324 0 0 Z " fill="#164E8D" transform="translate(312,376)"/>
<path d="M0 0 C2.48699712 0.36496813 3.66778648 0.5675951 5.23046875 2.6015625 C7.37524614 7.1362347 8.58268589 10.99223064 9 16 C8.34 16.33 7.68 16.66 7 17 C6.16260219 14.8765984 5.33019717 12.7512272 4.5 10.625 C3.80390625 8.84996094 3.80390625 8.84996094 3.09375 7.0390625 C2 4 2 4 2 2 C1.34 2 0.68 2 0 2 C0 1.34 0 0.68 0 0 Z " fill="#D4E1F1" transform="translate(359,330)"/>
<path d="M0 0 C-0.66 0 -1.32 0 -2 0 C-2.33 1.32 -2.66 2.64 -3 4 C-3 3.01 -3 2.02 -3 1 C-4.32 1 -5.64 1 -7 1 C-6.90460938 2.20398438 -6.80921875 3.40796875 -6.7109375 4.6484375 C-6.59840312 6.22391877 -6.48645427 7.79944195 -6.375 9.375 C-6.31054688 10.1690625 -6.24609375 10.963125 -6.1796875 11.78125 C-6.03941413 13.85028224 -6.01241763 15.92625536 -6 18 C-6.66 18.66 -7.32 19.32 -8 20 C-8.33 14.06 -8.66 8.12 -9 2 C-9.66 2 -10.32 2 -11 2 C-11 1.34 -11 0.68 -11 0 C-3.57142857 -1.28571429 -3.57142857 -1.28571429 0 0 Z " fill="#758EAE" transform="translate(295,403)"/>
<path d="M0 0 C1.32 0.33 2.64 0.66 4 1 C4 1.99 4 2.98 4 4 C3.01 4.66 2.02 5.32 1 6 C-0.99845839 9.99691678 -2 12.49726263 -2 17 C-2.99 16.67 -3.98 16.34 -5 16 C-4.54762239 14.08191891 -4.08785537 12.16557967 -3.625 10.25 C-3.24214844 8.64898437 -3.24214844 8.64898437 -2.8515625 7.015625 C-2.12466459 4.44147278 -1.2973776 2.32399814 0 0 Z " fill="#174E8B" transform="translate(177,364)"/>
<path d="M0 0 C0.91145054 2.97022221 1.01801972 5.06485586 0.44140625 8.109375 C0.30283203 8.86347656 0.16425781 9.61757812 0.02148438 10.39453125 C-0.12998047 11.17183594 -0.28144531 11.94914063 -0.4375 12.75 C-0.58509766 13.54277344 -0.73269531 14.33554688 -0.88476562 15.15234375 C-1.24903966 17.10297246 -1.62352512 19.0516893 -2 21 C-2.99 20.67 -3.98 20.34 -5 20 C-4.7435918 17.60182921 -4.4704516 15.20756272 -4.1875 12.8125 C-4.11724609 12.13896484 -4.04699219 11.46542969 -3.97460938 10.77148438 C-3.45380471 6.50088615 -2.48923123 3.51220296 0 0 Z " fill="#161616" transform="translate(263,237)"/>
<path d="M0 0 C2 0.75 2 0.75 5 2.75 C5.1875 5.875 5.1875 5.875 5 8.75 C3.68 7.43 2.36 6.11 1 4.75 C-0.65 5.41 -2.3 6.07 -4 6.75 C-4.33 5.1 -4.66 3.45 -5 1.75 C-2 -0.25 -2 -0.25 0 0 Z " fill="#D3DCE8" transform="translate(302,398.25)"/>
<path d="M0 0 C2.31 0 4.62 0 7 0 C6.87890625 2.29296875 6.87890625 2.29296875 6 5 C3.27734375 6.80078125 3.27734375 6.80078125 -0.0625 8.3125 C-1.16722656 8.82425781 -2.27195312 9.33601563 -3.41015625 9.86328125 C-4.26480469 10.23839844 -5.11945313 10.61351562 -6 11 C-6.33 10.01 -6.66 9.02 -7 8 C-6.38511719 7.74605469 -5.77023437 7.49210937 -5.13671875 7.23046875 C-4.32847656 6.88628906 -3.52023437 6.54210937 -2.6875 6.1875 C-1.88699219 5.85105469 -1.08648437 5.51460938 -0.26171875 5.16796875 C1.96515745 4.01799296 3.34987767 2.86373039 5 1 C3.35 1 1.7 1 0 1 C0 0.67 0 0.34 0 0 Z " fill="#E2EAF5" transform="translate(349,333)"/>
<path d="M0 0 C0.99 0.33 1.98 0.66 3 1 C-2.28 4.63 -7.56 8.26 -13 12 C-13.33 11.01 -13.66 10.02 -14 9 C-11.73692309 7.46636928 -9.46583175 5.94815741 -7.1875 4.4375 C-6.54490234 3.99986328 -5.90230469 3.56222656 -5.24023438 3.11132812 C-3.5432482 1.99465846 -1.77422942 0.98935494 0 0 Z " fill="#1D1D1D" transform="translate(296,261)"/>
<path d="M0 0 C3.3 0.66 6.6 1.32 10 2 C10 3.65 10 5.3 10 7 C9.34 6.01 8.68 5.02 8 4 C4.41642759 3.74984127 4.41642759 3.74984127 1 4 C0.67 5.65 0.34 7.3 0 9 C-1.22596039 5.32211882 -0.84310077 4.21550387 0 0 Z " fill="#205385" transform="translate(203,371)"/>
<path d="M0 0 C0.99 0 1.98 0 3 0 C3.66 2.31 4.32 4.62 5 7 C2.69 7 0.38 7 -2 7 C-1.125 2.25 -1.125 2.25 0 0 Z " fill="#B8C5D5" transform="translate(232,412)"/>
<path d="M0 0 C1.32 0 2.64 0 4 0 C4 6.6 4 13.2 4 20 C5.98 20 7.96 20 10 20 C10 20.33 10 20.66 10 21 C7.69 21 5.38 21 3 21 C2.92652344 19.35451172 2.92652344 19.35451172 2.8515625 17.67578125 C2.77649409 16.22133075 2.70094803 14.76690484 2.625 13.3125 C2.5940625 12.59126953 2.563125 11.87003906 2.53125 11.12695312 C2.30664413 7.02789606 1.82259091 3.75631541 0 0 Z " fill="#436977" transform="translate(230,375)"/>
<path d="M0 0 C6.27 0 12.54 0 19 0 C18.67 0.66 18.34 1.32 18 2 C11.65383991 3.36145995 6.05086238 3.28588134 0 1 C0 0.67 0 0.34 0 0 Z " fill="#1A1A1A" transform="translate(234,295)"/>
<path d="M0 0 C0.66 0.33 1.32 0.66 2 1 C-0.95727675 4.29525123 -3.69270742 6.01116032 -7.75 7.75 C-8.73484375 8.17796875 -9.7196875 8.6059375 -10.734375 9.046875 C-11.48203125 9.36140625 -12.2296875 9.6759375 -13 10 C-13.33 9.34 -13.66 8.68 -14 8 C-11.7136988 6.63597957 -9.42178251 5.28365726 -7.125 3.9375 C-6.47402344 3.54755859 -5.82304687 3.15761719 -5.15234375 2.75585938 C-3.46934275 1.77555467 -1.73703801 0.88101568 0 0 Z " fill="#171717" transform="translate(236,218)"/>
<path d="M0 0 C0 0.66 0 1.32 0 2 C-0.556875 2.061875 -1.11375 2.12375 -1.6875 2.1875 C-4.94987173 3.33373872 -6.68667874 5.49390197 -9 8 C-9.33 5.69 -9.66 3.38 -10 1 C-6.61981469 -0.04005702 -3.5219721 -0.08004482 0 0 Z " fill="#1A5088" transform="translate(299,385)"/>
<path d="M0 0 C2.14255793 -0.38932856 2.14255793 -0.38932856 4 -1 C1.86197902 1.32509781 -0.18598137 2.82167236 -3 4.25 C-4.0209375 4.78367187 -4.0209375 4.78367187 -5.0625 5.328125 C-7 6 -7 6 -10 5 C-9.34 5 -8.68 5 -8 5 C-7.9175 4.38125 -7.835 3.7625 -7.75 3.125 C-7 1 -7 1 -5.125 -0.3125 C-3 -1 -3 -1 0 0 Z " fill="#2C2C2C" transform="translate(287,287)"/>
<path d="M0 0 C0.66 0 1.32 0 2 0 C2 4.95 2 9.9 2 15 C-0.5610544 12.4389456 -0.40191222 11.05814287 -0.6875 7.5 C-0.77386719 6.5203125 -0.86023438 5.540625 -0.94921875 4.53125 C-1 2 -1 2 0 0 Z " fill="#225689" transform="translate(251,379)"/>
<path d="M0 0 C0.33 0 0.66 0 1 0 C1 2.31 1 4.62 1 7 C-5.93 6.505 -5.93 6.505 -13 6 C-13 5.67 -13 5.34 -13 5 C-12.22914063 4.97421875 -11.45828125 4.9484375 -10.6640625 4.921875 C-9.66117188 4.86515625 -8.65828125 4.8084375 -7.625 4.75 C-6.62726563 4.70359375 -5.62953125 4.6571875 -4.6015625 4.609375 C-1.8473523 4.27839115 -1.8473523 4.27839115 -0.6484375 1.953125 C-0.43445313 1.30859375 -0.22046875 0.6640625 0 0 Z " fill="#476894" transform="translate(223,419)"/>
<path d="M0 0 C4.29 0 8.58 0 13 0 C13 2.64 13 5.28 13 8 C12.34 7.67 11.68 7.34 11 7 C10.375 4.9375 10.375 4.9375 10 3 C8.906875 2.87625 7.81375 2.7525 6.6875 2.625 C3 2 3 2 0 0 Z " fill="#607CA2" transform="translate(255,405)"/>
<path d="M0 0 C4.3177458 0.50797009 8.03302114 1.19682779 12 3 C11.67 3.66 11.34 4.32 11 5 C5.38297872 4.10638298 5.38297872 4.10638298 2.75 3.375 C0.9023914 2.7885147 0.9023914 2.7885147 -1 4 C-0.67 2.68 -0.34 1.36 0 0 Z " fill="#064595" transform="translate(148,365)"/>
<path d="M0 0 C0.66 0.33 1.32 0.66 2 1 C0.68 2.32 -0.64 3.64 -2 5 C-0.02 4.67 1.96 4.34 4 4 C3.67 4.99 3.34 5.98 3 7 C0.69 7 -1.62 7 -4 7 C-3.6875 4.625 -3.6875 4.625 -3 2 C-2.01 1.34 -1.02 0.68 0 0 Z " fill="#DDE6F4" transform="translate(341,328)"/>
<path d="M0 0 C4.19360449 0.67097672 7.40334352 2.8558394 11 5 C10.67 5.99 10.34 6.98 10 8 C8.32819726 7.05065487 6.66266064 6.09026687 5 5.125 C4.071875 4.59132813 3.14375 4.05765625 2.1875 3.5078125 C1.465625 3.01023437 0.74375 2.51265625 0 2 C0 1.34 0 0.68 0 0 Z " fill="#E1E6ED" transform="translate(142,316)"/>
<path d="M0 0 C0.33 0 0.66 0 1 0 C1 2.31 1 4.62 1 7 C-1.97 6.67 -4.94 6.34 -8 6 C-6.68 5.34 -5.36 4.68 -4 4 C-2.64748503 2.68612831 -1.31054623 1.35573748 0 0 Z " fill="#365A8A" transform="translate(204,417)"/>
<path d="M0 0 C1.4606285 2.64738916 2 3.89448334 2 7 C-5.42857143 9.42857143 -5.42857143 9.42857143 -9 8 C-7.88625 7.79375 -6.7725 7.5875 -5.625 7.375 C-1.73400805 6.38371699 -1.73400805 6.38371699 -0.5625 2.875 C-0.376875 1.92625 -0.19125 0.9775 0 0 Z " fill="#416390" transform="translate(308,414)"/>
<path d="M0 0 C0 2.64 0 5.28 0 8 C-0.66 8 -1.32 8 -2 8 C-2.33 7.01 -2.66 6.02 -3 5 C-3.66 4.67 -4.32 4.34 -5 4 C-5.33 4.66 -5.66 5.32 -6 6 C-5.75 4.125 -5.75 4.125 -5 2 C-1.8 0 -1.8 0 0 0 Z " fill="#3D608D" transform="translate(221,411)"/>
<path d="M0 0 C0.33 0 0.66 0 1 0 C1.33 3.63 1.66 7.26 2 11 C0.68 11 -0.64 11 -2 11 C-1.125 3.375 -1.125 3.375 0 0 Z " fill="#0C4994" transform="translate(203,377)"/>
<path d="M0 0 C0.33 0 0.66 0 1 0 C0.67 3.63 0.34 7.26 0 11 C-1.65 11 -3.3 11 -5 11 C-4.67 10.34 -4.34 9.68 -4 9 C-3.34 9 -2.68 9 -2 9 C-1.34 6.03 -0.68 3.06 0 0 Z " fill="#134D91" transform="translate(211,378)"/>
<path d="M0 0 C3.0831351 1.19899698 6.06279492 2.47700477 9 4 C8.67 4.99 8.34 5.98 8 7 C5.03 5.35 2.06 3.7 -1 2 C-0.67 1.34 -0.34 0.68 0 0 Z " fill="#171717" transform="translate(291,221)"/>
<path d="M0 0 C0.33 0.99 0.66 1.98 1 3 C-3.625 6 -3.625 6 -7 6 C-7 5.34 -7 4.68 -7 4 C-6.01 4 -5.02 4 -4 4 C-4 3.01 -4 2.02 -4 1 C-2.68 0.67 -1.36 0.34 0 0 Z " fill="#1B518B" transform="translate(188,383)"/>
<path d="M0 0 C2.4375 0.6875 2.4375 0.6875 5 2 C5.8125 4.625 5.8125 4.625 6 7 C4.02 7 2.04 7 0 7 C0 6.34 0 5.68 0 5 C1.32 5 2.64 5 4 5 C2.68 3.35 1.36 1.7 0 0 Z " fill="#DCE6F3" transform="translate(157,328)"/>
<path d="M0 0 C0.33 0.99 0.66 1.98 1 3 C0.00390625 4.82421875 0.00390625 4.82421875 -1.4375 6.6875 C-1.91058594 7.31011719 -2.38367188 7.93273437 -2.87109375 8.57421875 C-3.24363281 9.04472656 -3.61617188 9.51523438 -4 10 C-4.66 9.34 -5.32 8.68 -6 8 C-2.25 1.125 -2.25 1.125 0 0 Z " fill="#151515" transform="translate(285,175)"/>
<path d="M0 0 C2.64 0 5.28 0 8 0 C8 2.31 8 4.62 8 7 C6 6 6 6 5.125 4.0625 C3.77090236 1.57998766 2.57821507 1.03128603 0 0 Z " fill="#436491" transform="translate(217,404)"/>
<path d="M0 0 C0 0.66 0 1.32 0 2 C-1.65 2.33 -3.3 2.66 -5 3 C-5 3.66 -5 4.32 -5 5 C-7.64 5 -10.28 5 -13 5 C-3.38461538 0 -3.38461538 0 0 0 Z " fill="#184E89" transform="translate(357,374)"/>
<path d="M0 0 C0.33 0 0.66 0 1 0 C1.33 2.64 1.66 5.28 2 8 C-0.97 7.505 -0.97 7.505 -4 7 C-4 6.01 -4 5.02 -4 4 C-3.01 4 -2.02 4 -1 4 C-0.67 2.68 -0.34 1.36 0 0 Z " fill="#3C5E8D" transform="translate(303,407)"/>
<path d="M0 0 C-1.423125 0.61875 -1.423125 0.61875 -2.875 1.25 C-6.00716624 3.0040131 -6.86500606 3.70851757 -8 7 C-8.33 7 -8.66 7 -9 7 C-9.3125 4.6875 -9.3125 4.6875 -9 2 C-5.85636787 -0.61969344 -3.87356388 -1.57811862 0 0 Z " fill="#2564B9" transform="translate(344,328)"/>
<path d="M0 0 C0.99 0 1.98 0 3 0 C3 0.66 3 1.32 3 2 C3.99 2.33 4.98 2.66 6 3 C3.36 3.33 0.72 3.66 -2 4 C-2.33 5.32 -2.66 6.64 -3 8 C-3 6.35 -3 4.7 -3 3 C-2.01 3 -1.02 3 0 3 C0 2.01 0 1.02 0 0 Z " fill="#3A6177" transform="translate(290,373)"/>
<path d="M0 0 C-2.64 1.65 -5.28 3.3 -8 5 C-8.33 4.01 -8.66 3.02 -9 2 C-3.375 -1.125 -3.375 -1.125 0 0 Z " fill="#E6ECF4" transform="translate(348,323)"/>
<path d="M0 0 C1.32 0 2.64 0 4 0 C2.375 5.75 2.375 5.75 -1 8 C-0.814375 7.38125 -0.62875 6.7625 -0.4375 6.125 C0.23686176 3.95839822 0.23686176 3.95839822 -1 2 C-0.67 1.34 -0.34 0.68 0 0 Z " fill="#1C1C1C" transform="translate(309,262)"/>
<path d="M0 0 C3.3 0.99 6.6 1.98 10 3 C10 3.33 10 3.66 10 4 C7.36 4 4.72 4 2 4 C2 3.34 2 2.68 2 2 C1.34 2 0.68 2 0 2 C0 1.34 0 0.68 0 0 Z " fill="#134B8D" transform="translate(171,383)"/>
<path d="M0 0 C-1.12073862 0.83905565 -2.24674547 1.67107831 -3.375 2.5 C-4.00148438 2.9640625 -4.62796875 3.428125 -5.2734375 3.90625 C-7 5 -7 5 -9 5 C-8 2 -8 2 -5.625 0.25 C-3 -1 -3 -1 0 0 Z " fill="#171717" transform="translate(299,262)"/>
<path d="M0 0 C0.96516243 3.00272755 1.22393475 5.04215769 0 8 C-0.99 8.33 -1.98 8.66 -3 9 C-2.5020163 5.26512223 -2.12508244 3.18762365 0 0 Z " fill="#2F2F2F" transform="translate(263,237)"/>
<path d="M0 0 C1.88391785 3.26545761 2.49287967 6.28111761 3 10 C2.34 10 1.68 10 1 10 C-1.125 3.375 -1.125 3.375 0 0 Z " fill="#235789" transform="translate(309,365)"/>
<path d="M0 0 C0.99 0.66 1.98 1.32 3 2 C2.34 2 1.68 2 1 2 C0.34 3.98 -0.32 5.96 -1 8 C-1.66 8 -2.32 8 -3 8 C-1.125 1.125 -1.125 1.125 0 0 Z " fill="#194E87" transform="translate(147,363)"/>
<path d="M0 0 C2.97 0.495 2.97 0.495 6 1 C6 1.33 6 1.66 6 2 C4.35 2 2.7 2 1 2 C1.33 2.99 1.66 3.98 2 5 C1.01 5 0.02 5 -1 5 C-0.67 3.35 -0.34 1.7 0 0 Z " fill="#D8E3F2" transform="translate(145,332)"/>
<path d="M0 0 C1.98 0 3.96 0 6 0 C6 1.98 6 3.96 6 6 C3.97945196 4.35830472 1.97956942 2.69088222 0 1 C0 0.67 0 0.34 0 0 Z " fill="#325687" transform="translate(301,401)"/>
<path d="M0 0 C1.65 0 3.3 0 5 0 C4.34 1.32 3.68 2.64 3 4 C2.01 4 1.02 4 0 4 C0 2.68 0 1.36 0 0 Z " fill="#0045A1" transform="translate(262,378)"/>
<path d="M0 0 C-0.33 0.99 -0.66 1.98 -1 3 C-3.3125 3.625 -3.3125 3.625 -6 4 C-6.99 3.34 -7.98 2.68 -9 2 C-2.25 0 -2.25 0 0 0 Z " fill="#D5D8DD" transform="translate(331,346)"/>
<path d="M0 0 C0.66 0.33 1.32 0.66 2 1 C1.3125 2.9375 1.3125 2.9375 0 5 C-2.625 5.75 -2.625 5.75 -5 6 C-4.34 5.67 -3.68 5.34 -3 5 C-2.835 4.34 -2.67 3.68 -2.5 3 C-2.335 2.34 -2.17 1.68 -2 1 C-1.34 0.67 -0.68 0.34 0 0 Z " fill="#1E1E1E" transform="translate(282,287)"/>
</svg>
